<svg width="228" height="23" viewBox="0 0 228 23" fill="none" xmlns="http://www.w3.org/2000/svg">
<path d="M4.28 16.232C4.28 15.544 4.16 14.952 3.92 14.456C3.696 13.944 3.408 13.52 3.056 13.184C2.72 12.848 2.352 12.6 1.952 12.44C1.568 12.28 1.224 12.2 0.92 12.2V10.52C1.224 10.52 1.568 10.456 1.952 10.328C2.352 10.184 2.72 9.96 3.056 9.656C3.408 9.336 3.696 8.928 3.92 8.432C4.16 7.936 4.28 7.32 4.28 6.584V4.136C4.28 3.56 4.368 3.032 4.544 2.552C4.736 2.072 4.992 1.656 5.312 1.304C5.648 0.951999 6.04 0.679999 6.488 0.487999C6.952 0.279999 7.456 0.175999 8 0.175999H11.48V1.856H8.84C7.832 1.856 7.128 2.096 6.728 2.576C6.344 3.056 6.152 3.768 6.152 4.712V7.04C6.152 7.696 6.032 8.28 5.792 8.792C5.552 9.304 5.264 9.736 4.928 10.088C4.592 10.424 4.248 10.696 3.896 10.904C3.544 11.096 3.256 11.208 3.032 11.24V11.384C3.24 11.416 3.52 11.544 3.872 11.768C4.224 11.976 4.568 12.272 4.904 12.656C5.24 13.024 5.528 13.464 5.768 13.976C6.024 14.488 6.152 15.056 6.152 15.68V17.984C6.152 18.96 6.36 19.68 6.776 20.144C7.192 20.608 7.888 20.84 8.864 20.84H11.48V22.52H8C6.88 22.52 5.976 22.184 5.288 21.512C4.616 20.856 4.28 19.88 4.28 18.584V16.232ZM13.9666 0.199999H17.8546V10.136H19.1746L23.9026 5H26.1586L20.8546 10.688L25.2226 15.392H26.7826V17H24.3106L19.1746 11.576H17.8546V17H16.0066V1.808H13.9666V0.199999ZM30.3733 5.936C31.0613 5.536 31.8373 5.248 32.7013 5.072C33.5653 4.896 34.4133 4.808 35.2453 4.808C36.0613 4.808 36.7253 4.936 37.2373 5.192C37.7653 5.448 38.1733 5.784 38.4613 6.2C38.7653 6.6 38.9653 7.064 39.0613 7.592C39.1733 8.104 39.2293 8.624 39.2293 9.152C39.2293 9.76 39.2133 10.408 39.1813 11.096C39.1493 11.784 39.1253 12.472 39.1093 13.16C39.1093 13.96 39.1573 14.72 39.2533 15.44H40.8613V17H37.6693L37.4533 15.2H37.3333C37.2373 15.344 37.0933 15.528 36.9013 15.752C36.7093 15.976 36.4533 16.2 36.1333 16.424C35.8293 16.632 35.4533 16.816 35.0053 16.976C34.5573 17.136 34.0293 17.216 33.4213 17.216C32.2373 17.216 31.3013 16.912 30.6133 16.304C29.9253 15.696 29.5813 14.864 29.5813 13.808C29.5813 12.992 29.7573 12.312 30.1093 11.768C30.4773 11.224 30.9973 10.808 31.6693 10.52C32.3413 10.232 33.1493 10.064 34.0933 10.016C35.0533 9.968 36.1253 10.032 37.3093 10.208C37.3893 9.472 37.3973 8.864 37.3333 8.384C37.2853 7.888 37.1573 7.496 36.9493 7.208C36.7573 6.92 36.4773 6.72 36.1093 6.608C35.7573 6.48 35.3173 6.416 34.7893 6.416C34.0693 6.416 33.3813 6.52 32.7253 6.728C32.0693 6.92 31.4853 7.12 30.9733 7.328L30.3733 5.936ZM33.9013 15.608C34.3493 15.608 34.7653 15.536 35.1493 15.392C35.5333 15.248 35.8693 15.064 36.1573 14.84C36.4453 14.616 36.6853 14.376 36.8773 14.12C37.0693 13.848 37.2133 13.592 37.3093 13.352V11.672C36.4773 11.528 35.7093 11.456 35.0053 11.456C34.3013 11.456 33.6933 11.536 33.1813 11.696C32.6693 11.84 32.2693 12.072 31.9813 12.392C31.6933 12.712 31.5493 13.128 31.5493 13.64C31.5493 14.168 31.7253 14.632 32.0773 15.032C32.4453 15.416 33.0533 15.608 33.9013 15.608ZM42.9159 5H45.7719V2.624L47.6439 2.096V5H54.0519V6.608H47.6439V12.272C47.6439 13.44 47.9239 14.304 48.4839 14.864C49.0599 15.424 49.8759 15.704 50.9319 15.704C51.6519 15.704 52.2759 15.568 52.8039 15.296C53.3479 15.024 53.8359 14.728 54.2679 14.408L54.8919 15.824C54.3319 16.272 53.6599 16.632 52.8759 16.904C52.1079 17.176 51.3159 17.312 50.4999 17.312C49.8599 17.312 49.2519 17.216 48.6759 17.024C48.1159 16.848 47.6199 16.568 47.1879 16.184C46.7559 15.8 46.4119 15.312 46.1559 14.72C45.8999 14.112 45.7719 13.392 45.7719 12.56V6.608H42.9159V5ZM59.0825 17V15.392H63.2585V6.608H59.0825V5H65.1785V15.392H69.2585V17H59.0825ZM62.6105 1.592C62.6105 1.16 62.7545 0.791999 63.0425 0.487999C63.3305 0.168 63.6985 0.0079999 64.1465 0.0079999C64.6105 0.0079999 64.9945 0.168 65.2985 0.487999C65.6185 0.791999 65.7785 1.16 65.7785 1.592C65.7785 2.008 65.6185 2.36 65.2985 2.648C64.9945 2.936 64.6105 3.08 64.1465 3.08C63.6985 3.08 63.3305 2.936 63.0425 2.648C62.7545 2.36 62.6105 2.008 62.6105 1.592ZM83.6491 15.488C83.3611 15.744 83.0171 15.984 82.6171 16.208C82.2331 16.432 81.8091 16.624 81.3451 16.784C80.8811 16.944 80.3931 17.064 79.8811 17.144C79.3851 17.24 78.8811 17.288 78.3691 17.288C77.4091 17.288 76.5611 17.144 75.8251 16.856C75.0891 16.552 74.4731 16.128 73.9771 15.584C73.4811 15.024 73.1051 14.36 72.8491 13.592C72.5931 12.824 72.4651 11.96 72.4651 11C72.4651 9.992 72.6011 9.096 72.8731 8.312C73.1611 7.528 73.5691 6.872 74.0971 6.344C74.6251 5.816 75.2651 5.416 76.0171 5.144C76.7691 4.856 77.6091 4.712 78.5371 4.712C79.2091 4.712 79.8731 4.8 80.5291 4.976C81.1851 5.152 81.7611 5.488 82.2571 5.984C82.7691 6.464 83.1611 7.136 83.4331 8C83.7051 8.848 83.8011 9.952 83.7211 11.312H74.4331C74.4331 12.752 74.8171 13.832 75.5851 14.552C76.3691 15.256 77.4091 15.608 78.7051 15.608C79.1371 15.608 79.5611 15.56 79.9771 15.464C80.4091 15.352 80.8171 15.224 81.2011 15.08C81.5851 14.936 81.9211 14.776 82.2091 14.6C82.5131 14.424 82.7451 14.264 82.9051 14.12L83.6491 15.488ZM78.5851 6.296C78.0571 6.296 77.5531 6.352 77.0731 6.464C76.6091 6.576 76.1931 6.768 75.8251 7.04C75.4731 7.296 75.1771 7.64 74.9371 8.072C74.7131 8.488 74.5691 9.008 74.5051 9.632H81.9691C81.8891 8.576 81.5451 7.76 80.9371 7.184C80.3451 6.592 79.5611 6.296 78.5851 6.296ZM91.6318 17V9.008C91.6318 8.672 91.6158 8.352 91.5838 8.048C91.5678 7.728 91.5118 7.448 91.4158 7.208C91.3358 6.952 91.2078 6.752 91.0318 6.608C90.8718 6.464 90.6558 6.392 90.3838 6.392C89.8398 6.392 89.3758 6.616 88.9918 7.064C88.6238 7.512 88.3438 8.072 88.1518 8.744V17H86.3278V5H87.5758L87.9358 6.464H88.0318C88.1918 6.224 88.3438 6 88.4878 5.792C88.6478 5.568 88.8238 5.376 89.0158 5.216C89.2238 5.056 89.4638 4.936 89.7358 4.856C90.0078 4.76 90.3518 4.712 90.7678 4.712C91.0078 4.712 91.2558 4.752 91.5117 4.832C91.7678 4.896 91.9998 5.008 92.2078 5.168C92.4318 5.312 92.6238 5.512 92.7838 5.768C92.9438 6.024 93.0478 6.336 93.0958 6.704C93.4638 6.08 93.8718 5.592 94.3198 5.24C94.7838 4.888 95.4158 4.712 96.2158 4.712C96.7438 4.712 97.1678 4.8 97.4878 4.976C97.8238 5.152 98.0798 5.408 98.2558 5.744C98.4478 6.064 98.5758 6.456 98.6398 6.92C98.7198 7.368 98.7598 7.872 98.7598 8.432V17H96.9358V8.84C96.9358 8.504 96.9198 8.192 96.8878 7.904C96.8558 7.6 96.7918 7.336 96.6958 7.112C96.6158 6.888 96.4958 6.712 96.3358 6.584C96.1918 6.456 95.9918 6.392 95.7358 6.392C95.1758 6.392 94.7038 6.616 94.3198 7.064C93.9358 7.512 93.6478 8.152 93.4558 8.984V17H91.6318ZM102.326 5.936C103.014 5.536 103.79 5.248 104.654 5.072C105.518 4.896 106.366 4.808 107.198 4.808C108.014 4.808 108.678 4.936 109.19 5.192C109.718 5.448 110.126 5.784 110.414 6.2C110.718 6.6 110.918 7.064 111.014 7.592C111.126 8.104 111.182 8.624 111.182 9.152C111.182 9.76 111.166 10.408 111.134 11.096C111.102 11.784 111.078 12.472 111.062 13.16C111.062 13.96 111.11 14.72 111.206 15.44H112.814V17H109.622L109.406 15.2H109.286C109.19 15.344 109.046 15.528 108.854 15.752C108.662 15.976 108.406 16.2 108.086 16.424C107.782 16.632 107.406 16.816 106.958 16.976C106.51 17.136 105.982 17.216 105.374 17.216C104.19 17.216 103.254 16.912 102.566 16.304C101.878 15.696 101.534 14.864 101.534 13.808C101.534 12.992 101.71 12.312 102.062 11.768C102.43 11.224 102.95 10.808 103.622 10.52C104.294 10.232 105.102 10.064 106.046 10.016C107.006 9.968 108.078 10.032 109.262 10.208C109.342 9.472 109.35 8.864 109.286 8.384C109.238 7.888 109.11 7.496 108.902 7.208C108.71 6.92 108.43 6.72 108.062 6.608C107.71 6.48 107.27 6.416 106.742 6.416C106.022 6.416 105.334 6.52 104.678 6.728C104.022 6.92 103.438 7.12 102.926 7.328L102.326 5.936ZM105.854 15.608C106.302 15.608 106.718 15.536 107.102 15.392C107.486 15.248 107.822 15.064 108.11 14.84C108.398 14.616 108.638 14.376 108.83 14.12C109.022 13.848 109.166 13.592 109.262 13.352V11.672C108.43 11.528 107.662 11.456 106.958 11.456C106.254 11.456 105.646 11.536 105.134 11.696C104.622 11.84 104.222 12.072 103.934 12.392C103.646 12.712 103.502 13.128 103.502 13.64C103.502 14.168 103.678 14.632 104.03 15.032C104.398 15.416 105.006 15.608 105.854 15.608ZM121.589 15.152H122.501L125.477 5H127.421L124.085 15.776C123.909 16.336 123.725 16.968 123.533 17.672C123.357 18.392 123.101 19.064 122.765 19.688C122.429 20.312 121.973 20.84 121.397 21.272C120.821 21.704 120.069 21.92 119.141 21.92C118.933 21.92 118.709 21.896 118.469 21.848C118.245 21.8 118.021 21.736 117.797 21.656C117.573 21.592 117.365 21.512 117.173 21.416C116.981 21.32 116.837 21.224 116.741 21.128L117.413 19.4C117.509 19.48 117.637 19.56 117.797 19.64C117.973 19.72 118.157 19.784 118.349 19.832C118.557 19.896 118.757 19.944 118.949 19.976C119.141 20.024 119.301 20.048 119.429 20.048C120.629 20.048 121.445 19.032 121.877 17H120.269L115.229 5H117.389L121.589 15.152ZM139.052 6.848C138.684 6.72 138.284 6.616 137.852 6.536C137.436 6.44 137.02 6.392 136.604 6.392C135.036 6.392 133.868 6.76 133.1 7.496C132.332 8.232 131.948 9.4 131.948 11C131.948 11.704 132.06 12.336 132.284 12.896C132.508 13.44 132.828 13.904 133.244 14.288C133.66 14.672 134.156 14.968 134.732 15.176C135.324 15.384 135.972 15.488 136.676 15.488C137.428 15.488 138.156 15.36 138.86 15.104C139.58 14.848 140.18 14.512 140.66 14.096L141.5 15.488C141.276 15.68 140.996 15.88 140.66 16.088C140.324 16.296 139.932 16.496 139.484 16.688C139.052 16.864 138.564 17.008 138.02 17.12C137.492 17.232 136.916 17.288 136.292 17.288C135.252 17.288 134.332 17.144 133.532 16.856C132.748 16.552 132.092 16.128 131.564 15.584C131.036 15.024 130.636 14.36 130.364 13.592C130.092 12.808 129.956 11.944 129.956 11C129.956 9.992 130.092 9.096 130.364 8.312C130.652 7.528 131.06 6.872 131.588 6.344C132.116 5.816 132.756 5.416 133.508 5.144C134.26 4.856 135.1 4.712 136.028 4.712C137.212 4.712 138.172 4.816 138.908 5.024C139.66 5.232 140.292 5.464 140.804 5.72L140.78 5.792V9.128H139.052V6.848ZM144.274 11C144.274 9.064 144.778 7.536 145.786 6.416C146.794 5.28 148.234 4.712 150.106 4.712C151.114 4.712 151.978 4.88 152.698 5.216C153.434 5.536 154.042 5.976 154.522 6.536C155.002 7.096 155.354 7.76 155.578 8.528C155.818 9.296 155.938 10.12 155.938 11C155.938 11.96 155.81 12.832 155.554 13.616C155.298 14.384 154.922 15.04 154.426 15.584C153.93 16.128 153.314 16.552 152.578 16.856C151.858 17.144 151.034 17.288 150.106 17.288C149.114 17.288 148.25 17.128 147.514 16.808C146.778 16.472 146.17 16.024 145.69 15.464C145.21 14.904 144.85 14.24 144.61 13.472C144.386 12.704 144.274 11.88 144.274 11ZM146.266 11C146.266 11.56 146.33 12.12 146.458 12.68C146.602 13.24 146.826 13.744 147.13 14.192C147.434 14.64 147.826 15 148.306 15.272C148.802 15.544 149.402 15.68 150.106 15.68C151.386 15.68 152.346 15.288 152.986 14.504C153.642 13.704 153.97 12.536 153.97 11C153.97 10.424 153.898 9.864 153.754 9.32C153.626 8.76 153.402 8.256 153.082 7.808C152.778 7.36 152.378 7 151.882 6.728C151.402 6.456 150.81 6.32 150.106 6.32C148.826 6.32 147.866 6.712 147.226 7.496C146.586 8.28 146.266 9.448 146.266 11ZM165.673 0.199999H169.561V12.896C169.561 13.04 169.569 13.224 169.585 13.448C169.601 13.656 169.617 13.88 169.633 14.12C169.665 14.36 169.697 14.6 169.729 14.84C169.761 15.064 169.793 15.264 169.825 15.44H171.433V17H168.241L168.001 15.152H167.905C167.553 15.76 167.025 16.272 166.321 16.688C165.633 17.088 164.833 17.288 163.921 17.288C162.113 17.288 160.777 16.784 159.913 15.776C159.065 14.752 158.641 13.168 158.641 11.024C158.641 10.016 158.785 9.128 159.073 8.36C159.361 7.576 159.769 6.928 160.297 6.416C160.841 5.888 161.489 5.488 162.241 5.216C162.993 4.944 163.833 4.808 164.761 4.808C165.097 4.808 165.393 4.816 165.649 4.832C165.921 4.848 166.169 4.872 166.393 4.904C166.617 4.936 166.825 4.984 167.017 5.048C167.225 5.096 167.449 5.152 167.689 5.216V1.808H165.673V0.199999ZM164.233 15.68C165.209 15.68 165.977 15.432 166.537 14.936C167.097 14.424 167.481 13.664 167.689 12.656V7.088C167.337 6.848 166.937 6.672 166.489 6.56C166.057 6.448 165.481 6.392 164.761 6.392C163.481 6.392 162.473 6.768 161.737 7.52C161.001 8.256 160.633 9.424 160.633 11.024C160.633 11.68 160.689 12.296 160.801 12.872C160.929 13.432 161.129 13.92 161.401 14.336C161.689 14.752 162.065 15.08 162.529 15.32C162.993 15.56 163.561 15.68 164.233 15.68ZM184.384 15.488C184.096 15.744 183.752 15.984 183.352 16.208C182.968 16.432 182.544 16.624 182.08 16.784C181.616 16.944 181.128 17.064 180.616 17.144C180.12 17.24 179.616 17.288 179.104 17.288C178.144 17.288 177.296 17.144 176.56 16.856C175.824 16.552 175.208 16.128 174.712 15.584C174.216 15.024 173.84 14.36 173.584 13.592C173.328 12.824 173.2 11.96 173.2 11C173.2 9.992 173.336 9.096 173.608 8.312C173.896 7.528 174.304 6.872 174.832 6.344C175.36 5.816 176 5.416 176.752 5.144C177.504 4.856 178.344 4.712 179.272 4.712C179.944 4.712 180.608 4.8 181.264 4.976C181.92 5.152 182.496 5.488 182.992 5.984C183.504 6.464 183.896 7.136 184.168 8C184.44 8.848 184.536 9.952 184.456 11.312H175.168C175.168 12.752 175.552 13.832 176.32 14.552C177.104 15.256 178.144 15.608 179.44 15.608C179.872 15.608 180.296 15.56 180.712 15.464C181.144 15.352 181.552 15.224 181.936 15.08C182.32 14.936 182.656 14.776 182.944 14.6C183.248 14.424 183.48 14.264 183.64 14.12L184.384 15.488ZM179.32 6.296C178.792 6.296 178.288 6.352 177.808 6.464C177.344 6.576 176.928 6.768 176.56 7.04C176.208 7.296 175.912 7.64 175.672 8.072C175.448 8.488 175.304 9.008 175.24 9.632H182.704C182.624 8.576 182.28 7.76 181.672 7.184C181.08 6.592 180.296 6.296 179.32 6.296ZM196.59 13.76C196.59 13.248 196.39 12.856 195.99 12.584C195.59 12.296 195.094 12.072 194.502 11.912C193.91 11.736 193.262 11.576 192.558 11.432C191.87 11.288 191.23 11.096 190.638 10.856C190.046 10.616 189.55 10.296 189.15 9.896C188.75 9.48 188.55 8.904 188.55 8.168C188.55 7.56 188.678 7.04 188.934 6.608C189.206 6.176 189.558 5.824 189.99 5.552C190.422 5.264 190.926 5.056 191.502 4.928C192.078 4.784 192.678 4.712 193.302 4.712C194.422 4.712 195.382 4.856 196.182 5.144C196.998 5.416 197.646 5.704 198.126 6.008L197.358 7.52C196.83 7.232 196.254 6.96 195.63 6.704C195.022 6.432 194.254 6.296 193.326 6.296C192.974 6.296 192.622 6.336 192.27 6.416C191.934 6.48 191.622 6.584 191.334 6.728C191.062 6.872 190.838 7.064 190.662 7.304C190.502 7.528 190.422 7.808 190.422 8.144C190.422 8.56 190.622 8.88 191.022 9.104C191.422 9.328 191.918 9.52 192.51 9.68C193.102 9.824 193.742 9.968 194.43 10.112C195.134 10.24 195.782 10.432 196.374 10.688C196.966 10.944 197.462 11.288 197.862 11.72C198.262 12.152 198.462 12.736 198.462 13.472C198.462 14.576 198.022 15.488 197.142 16.208C196.278 16.928 194.974 17.288 193.23 17.288C192.702 17.288 192.182 17.24 191.67 17.144C191.158 17.048 190.678 16.92 190.23 16.76C189.782 16.6 189.374 16.424 189.006 16.232C188.638 16.024 188.334 15.816 188.094 15.608L189.054 14.048C189.246 14.24 189.502 14.44 189.822 14.648C190.142 14.84 190.494 15.016 190.878 15.176C191.262 15.336 191.67 15.464 192.102 15.56C192.55 15.656 192.998 15.704 193.446 15.704C193.878 15.704 194.278 15.672 194.646 15.608C195.03 15.528 195.366 15.416 195.654 15.272C195.942 15.112 196.166 14.912 196.326 14.672C196.502 14.416 196.59 14.112 196.59 13.76ZM205.965 15.68C205.965 15.2 206.117 14.816 206.421 14.528C206.741 14.224 207.149 14.072 207.645 14.072C208.253 14.072 208.725 14.288 209.061 14.72C209.397 15.136 209.565 15.728 209.565 16.496C209.565 17.12 209.461 17.664 209.253 18.128C209.045 18.608 208.781 19.008 208.461 19.328C208.157 19.664 207.821 19.928 207.453 20.12C207.101 20.328 206.773 20.48 206.469 20.576L205.869 19.64C206.445 19.416 206.941 19.096 207.357 18.68C207.773 18.264 207.981 17.76 207.981 17.168C207.757 17.216 207.581 17.24 207.453 17.24C206.989 17.24 206.621 17.112 206.349 16.856C206.093 16.584 205.965 16.192 205.965 15.68ZM206.181 6.248C206.181 5.736 206.325 5.344 206.613 5.072C206.901 4.784 207.285 4.64 207.765 4.64C208.277 4.64 208.677 4.784 208.965 5.072C209.253 5.344 209.397 5.736 209.397 6.248C209.397 6.712 209.253 7.096 208.965 7.4C208.677 7.704 208.277 7.856 207.765 7.856C207.285 7.856 206.901 7.704 206.613 7.4C206.325 7.096 206.181 6.712 206.181 6.248ZM223.979 18.584C223.979 19.88 223.635 20.856 222.947 21.512C222.275 22.184 221.379 22.52 220.259 22.52H216.779V20.84H219.395C220.371 20.84 221.067 20.608 221.483 20.144C221.899 19.68 222.107 18.96 222.107 17.984V15.68C222.107 15.056 222.227 14.488 222.467 13.976C222.707 13.464 222.995 13.024 223.331 12.656C223.667 12.272 224.011 11.976 224.363 11.768C224.715 11.544 225.003 11.416 225.227 11.384V11.24C225.003 11.208 224.715 11.096 224.363 10.904C224.011 10.696 223.667 10.424 223.331 10.088C222.995 9.736 222.707 9.304 222.467 8.792C222.227 8.28 222.107 7.696 222.107 7.04V4.712C222.107 3.768 221.907 3.056 221.507 2.576C221.123 2.096 220.427 1.856 219.419 1.856H216.779V0.175999H220.259C220.803 0.175999 221.299 0.279999 221.747 0.487999C222.211 0.679999 222.603 0.951999 222.923 1.304C223.259 1.656 223.515 2.072 223.691 2.552C223.883 3.032 223.979 3.56 223.979 4.136V6.584C223.979 7.32 224.091 7.936 224.315 8.432C224.555 8.928 224.843 9.336 225.179 9.656C225.531 9.96 225.899 10.184 226.283 10.328C226.683 10.456 227.035 10.52 227.339 10.52V12.2C227.035 12.2 226.683 12.28 226.283 12.44C225.899 12.6 225.531 12.848 225.179 13.184C224.843 13.52 224.555 13.944 224.315 14.456C224.091 14.952 223.979 15.544 223.979 16.232V18.584Z" fill="url(#paint0_linear_1_22)"/>
<path d="M3.92 14.456L3.64495 14.5763L3.64995 14.5867L3.92 14.456ZM3.056 13.184L2.84381 13.3962L2.84886 13.401L3.056 13.184ZM1.952 12.44L1.8366 12.717L1.84058 12.7185L1.952 12.44ZM0.92 12.2H0.62V12.5H0.92V12.2ZM0.92 10.52V10.22H0.62V10.52H0.92ZM1.952 10.328L2.0469 10.6127L2.05362 10.6103L1.952 10.328ZM3.056 9.656L3.25728 9.87846L3.2578 9.87798L3.056 9.656ZM3.92 8.432L3.64986 8.30129L3.64659 8.30852L3.92 8.432ZM4.544 2.552L4.26534 2.44053L4.26234 2.44872L4.544 2.552ZM5.312 1.304L5.09493 1.0968L5.09002 1.1022L5.312 1.304ZM6.488 0.487999L6.60619 0.763781L6.61072 0.761752L6.488 0.487999ZM11.48 0.175999H11.78V-0.124001H11.48V0.175999ZM11.48 1.856V2.156H11.78V1.856H11.48ZM6.728 2.576L6.49749 2.38391L6.49374 2.38859L6.728 2.576ZM5.792 8.792L6.06364 8.91933L5.792 8.792ZM4.928 10.088L5.14019 10.3002L5.14501 10.2951L4.928 10.088ZM3.896 10.904L4.03974 11.1675L4.04862 11.1623L3.896 10.904ZM3.032 11.24L2.98957 10.943L2.732 10.9798V11.24H3.032ZM3.032 11.384H2.732V11.6414L2.98638 11.6805L3.032 11.384ZM3.872 11.768L3.71085 12.0212L3.71938 12.0263L3.872 11.768ZM4.904 12.656L4.67818 12.8536L4.68245 12.8583L4.904 12.656ZM5.768 13.976L5.49628 14.1034L5.49967 14.1102L5.768 13.976ZM6.776 20.144L6.55263 20.3443H6.55263L6.776 20.144ZM11.48 20.84H11.78V20.54H11.48V20.84ZM11.48 22.52V22.82H11.78V22.52H11.48ZM5.288 21.512L5.49762 21.2974L5.49756 21.2973L5.288 21.512ZM4.58 16.232C4.58 15.5097 4.45404 14.8709 4.19005 14.3253L3.64995 14.5867C3.86596 15.0331 3.98 15.5783 3.98 16.232H4.58ZM4.19485 14.3358C3.95726 13.7927 3.64785 13.3342 3.26314 12.967L2.84886 13.401C3.16815 13.7058 3.43474 14.0953 3.64515 14.5762L4.19485 14.3358ZM3.26813 12.9719C2.90638 12.6101 2.50486 12.338 2.06342 12.1615L1.84058 12.7185C2.19914 12.862 2.53362 13.0859 2.84387 13.3961L3.26813 12.9719ZM2.06738 12.1631C1.65944 11.9931 1.27531 11.9 0.92 11.9V12.5C1.17269 12.5 1.47656 12.5669 1.83662 12.7169L2.06738 12.1631ZM1.22 12.2V10.52H0.62V12.2H1.22ZM0.92 10.82C1.26493 10.82 1.64178 10.7476 2.04687 10.6126L1.85713 10.0434C1.49422 10.1644 1.18307 10.22 0.92 10.22V10.82ZM2.05362 10.6103C2.49279 10.4522 2.8942 10.207 3.25727 9.87846L2.85473 9.43354C2.5458 9.71305 2.21121 9.91584 1.85038 10.0457L2.05362 10.6103ZM3.2578 9.87798C3.64422 9.52669 3.95495 9.0835 4.19341 8.55548L3.64659 8.30852C3.43705 8.7725 3.17178 9.14531 2.8542 9.43402L3.2578 9.87798ZM4.19005 8.56267C4.45522 8.01464 4.58 7.35077 4.58 6.584H3.98C3.98 7.28923 3.86478 7.85736 3.64995 8.30133L4.19005 8.56267ZM4.58 6.584V4.136H3.98V6.584H4.58ZM4.58 4.136C4.58 3.59081 4.66323 3.09828 4.82566 2.65527L4.26234 2.44872C4.07277 2.96572 3.98 3.52919 3.98 4.136H4.58ZM4.82254 2.66342C5.00239 2.21379 5.24009 1.82908 5.53398 1.5058L5.09002 1.1022C4.74391 1.48292 4.46961 1.93021 4.26546 2.44058L4.82254 2.66342ZM5.52901 1.51114C5.83699 1.1885 6.19535 0.93981 6.60618 0.763743L6.36982 0.212256C5.88465 0.420187 5.45901 0.715501 5.09499 1.09686L5.52901 1.51114ZM6.61072 0.761752C7.03347 0.572242 7.4953 0.475999 8 0.475999V-0.124001C7.4167 -0.124001 6.87053 -0.012243 6.36528 0.214247L6.61072 0.761752ZM8 0.475999H11.48V-0.124001H8V0.475999ZM11.18 0.175999V1.856H11.78V0.175999H11.18ZM11.48 1.556H8.84V2.156H11.48V1.556ZM8.84 1.556C7.79687 1.556 6.98181 1.80281 6.49753 2.38394L6.95847 2.76805C7.27419 2.38919 7.86713 2.156 8.84 2.156V1.556ZM6.49374 2.38859C6.04968 2.94367 5.852 3.73451 5.852 4.712H6.452C6.452 3.80149 6.63832 3.16833 6.96226 2.76341L6.49374 2.38859ZM5.852 4.712V7.04H6.452V4.712H5.852ZM5.852 7.04C5.852 7.65901 5.73892 8.19842 5.52036 8.66467L6.06364 8.91933C6.32508 8.36158 6.452 7.73299 6.452 7.04H5.852ZM5.52036 8.66467C5.29195 9.15195 5.02129 9.55579 4.71099 9.88086L5.14501 10.2951C5.50671 9.91621 5.81205 9.45605 6.06364 8.91933L5.52036 8.66467ZM4.71587 9.87587C4.39488 10.1969 4.07051 10.4524 3.74338 10.6457L4.04862 11.1623C4.42549 10.9396 4.78912 10.6511 5.14013 10.3001L4.71587 9.87587ZM3.75234 10.6406C3.41138 10.8266 3.16069 10.9186 2.98957 10.943L3.07443 11.537C3.35131 11.4974 3.67662 11.3654 4.03966 11.1674L3.75234 10.6406ZM2.732 11.24V11.384H3.332V11.24H2.732ZM2.98638 11.6805C3.13001 11.7026 3.36628 11.8018 3.71094 12.0211L4.03306 11.5149C3.67372 11.2862 3.34999 11.1294 3.07762 11.0875L2.98638 11.6805ZM3.71938 12.0263C4.03809 12.2146 4.35825 12.4879 4.67823 12.8536L5.12977 12.4584C4.77775 12.0561 4.40991 11.7374 4.02462 11.5097L3.71938 12.0263ZM4.68245 12.8583C4.99554 13.2012 5.26749 13.6151 5.49636 14.1033L6.03964 13.8487C5.78851 13.3129 5.48446 12.8468 5.12555 12.4537L4.68245 12.8583ZM5.49967 14.1102C5.73301 14.5768 5.852 15.0983 5.852 15.68H6.452C6.452 15.0137 6.31499 14.3992 6.03633 13.8418L5.49967 14.1102ZM5.852 15.68V17.984H6.452V15.68H5.852ZM5.852 17.984C5.852 18.9939 6.06589 19.8014 6.55263 20.3443L6.99937 19.9437C6.65411 19.5586 6.452 18.9261 6.452 17.984H5.852ZM6.55263 20.3443C7.05105 20.9002 7.85043 21.14 8.864 21.14V20.54C7.92557 20.54 7.33295 20.3158 6.99937 19.9437L6.55263 20.3443ZM8.864 21.14H11.48V20.54H8.864V21.14ZM11.18 20.84V22.52H11.78V20.84H11.18ZM11.48 22.22H8V22.82H11.48V22.22ZM8 22.22C6.94447 22.22 6.12038 21.9057 5.49762 21.2974L5.07838 21.7266C5.83162 22.4623 6.81554 22.82 8 22.82V22.22ZM5.49756 21.2973C4.90258 20.7165 4.58 19.8306 4.58 18.584H3.98C3.98 19.9294 4.32942 20.9955 5.07844 21.7267L5.49756 21.2973ZM4.58 18.584V16.232H3.98V18.584H4.58ZM13.9666 0.199999V-0.100001H13.6666V0.199999H13.9666ZM17.8546 0.199999H18.1546V-0.100001H17.8546V0.199999ZM17.8546 10.136H17.5546V10.436H17.8546V10.136ZM19.1746 10.136V10.436H19.3062L19.3953 10.3392L19.1746 10.136ZM23.9026 5V4.7H23.771L23.6819 4.79682L23.9026 5ZM26.1586 5L26.378 5.2046L26.8486 4.7H26.1586V5ZM20.8546 10.688L20.6352 10.4834L20.4448 10.6876L20.6348 10.8921L20.8546 10.688ZM25.2226 15.392L25.0028 15.5961L25.0918 15.692H25.2226V15.392ZM26.7826 15.392H27.0826V15.092H26.7826V15.392ZM26.7826 17V17.3H27.0826V17H26.7826ZM24.3106 17L24.0928 17.2063L24.1815 17.3H24.3106V17ZM19.1746 11.576L19.3925 11.3697L19.3037 11.276H19.1746V11.576ZM17.8546 11.576V11.276H17.5546V11.576H17.8546ZM17.8546 17V17.3H18.1546V17H17.8546ZM16.0066 17H15.7066V17.3H16.0066V17ZM16.0066 1.808H16.3066V1.508H16.0066V1.808ZM13.9666 1.808H13.6666V2.108H13.9666V1.808ZM13.9666 0.499999H17.8546V-0.100001H13.9666V0.499999ZM17.5546 0.199999V10.136H18.1546V0.199999H17.5546ZM17.8546 10.436H19.1746V9.836H17.8546V10.436ZM19.3953 10.3392L24.1233 5.20318L23.6819 4.79682L18.9539 9.93282L19.3953 10.3392ZM23.9026 5.3H26.1586V4.7H23.9026V5.3ZM25.9392 4.7954L20.6352 10.4834L21.074 10.8926L26.378 5.2046L25.9392 4.7954ZM20.6348 10.8921L25.0028 15.5961L25.4425 15.1879L21.0745 10.4839L20.6348 10.8921ZM25.2226 15.692H26.7826V15.092H25.2226V15.692ZM26.4826 15.392V17H27.0826V15.392H26.4826ZM26.7826 16.7H24.3106V17.3H26.7826V16.7ZM24.5285 16.7937L19.3925 11.3697L18.9568 11.7823L24.0928 17.2063L24.5285 16.7937ZM19.1746 11.276H17.8546V11.876H19.1746V11.276ZM17.5546 11.576V17H18.1546V11.576H17.5546ZM17.8546 16.7H16.0066V17.3H17.8546V16.7ZM16.3066 17V1.808H15.7066V17H16.3066ZM16.0066 1.508H13.9666V2.108H16.0066V1.508ZM14.2666 1.808V0.199999H13.6666V1.808H14.2666ZM30.3733 5.936L30.2225 5.67665L29.9924 5.81039L30.0978 6.05475L30.3733 5.936ZM32.7013 5.072L32.7611 5.36596L32.7013 5.072ZM37.2373 5.192L37.1031 5.46035L37.1064 5.46194L37.2373 5.192ZM38.4613 6.2L38.2144 6.37093L38.2224 6.38152L38.4613 6.2ZM39.0612 7.592L38.7659 7.6457L38.7682 7.65611L39.0612 7.592ZM39.1092 13.16L38.8092 13.153V13.16H39.1092ZM39.2533 15.44L38.9559 15.4796L38.9906 15.74H39.2533V15.44ZM40.8613 15.44H41.1613V15.14H40.8613V15.44ZM40.8613 17V17.3H41.1613V17H40.8613ZM37.6693 17L37.3714 17.0357L37.4031 17.3H37.6693V17ZM37.4533 15.2L37.7511 15.1643L37.7194 14.9H37.4533V15.2ZM37.3333 15.2V14.9H37.1727L37.0836 15.0336L37.3333 15.2ZM36.1333 16.424L36.3027 16.6716L36.3053 16.6698L36.1333 16.424ZM35.0052 16.976L35.1062 17.2585L35.0052 16.976ZM30.6133 16.304L30.8119 16.0792L30.6133 16.304ZM30.1092 11.768L29.8607 11.5999L29.8574 11.605L30.1092 11.768ZM31.6693 10.52L31.5511 10.2443L31.6693 10.52ZM34.0933 10.016L34.0783 9.71637L34.078 9.71639L34.0933 10.016ZM37.3092 10.208L37.2651 10.5047L37.5738 10.5506L37.6075 10.2404L37.3092 10.208ZM37.3333 8.384L37.0345 8.41292L37.0359 8.42365L37.3333 8.384ZM36.9492 7.208L36.6995 7.37453L36.706 7.38365L36.9492 7.208ZM36.1092 6.608L36.0067 6.88994L36.0142 6.89267L36.0219 6.895L36.1092 6.608ZM32.7253 6.728L32.8095 7.01599L32.8159 7.01397L32.7253 6.728ZM30.9732 7.328L30.6978 7.44675L30.814 7.7165L31.0862 7.60594L30.9732 7.328ZM35.1493 15.392L35.0439 15.1111L35.1493 15.392ZM36.1572 14.84L35.9731 14.6032V14.6032L36.1572 14.84ZM36.8773 14.12L37.1174 14.3001L37.1223 14.293L36.8773 14.12ZM37.3092 13.352L37.5878 13.4634L37.6092 13.4098V13.352H37.3092ZM37.3092 11.672H37.6092V11.4195L37.3604 11.3764L37.3092 11.672ZM33.1813 11.696L33.2625 11.9849L33.2707 11.9823L33.1813 11.696ZM31.9813 12.392L32.2042 12.5927L31.9813 12.392ZM32.0773 15.032L31.8518 15.2304L31.8607 15.2396L32.0773 15.032ZM30.524 6.19535C31.1809 5.81343 31.9257 5.53615 32.7611 5.36596L32.6414 4.77804C31.7488 4.95985 30.9416 5.25857 30.2225 5.67665L30.524 6.19535ZM32.7611 5.36596C33.6066 5.19374 34.4345 5.108 35.2453 5.108V4.508C34.392 4.508 33.5239 4.59826 32.6414 4.77804L32.7611 5.36596ZM35.2453 5.108C36.0332 5.108 36.6466 5.23209 37.1031 5.46033L37.3714 4.92367C36.8039 4.6399 36.0893 4.508 35.2453 4.508V5.108ZM37.1064 5.46194C37.5954 5.69904 37.9604 6.0036 38.2146 6.37076L38.7079 6.02924C38.3861 5.5644 37.9351 5.19696 37.3681 4.92206L37.1064 5.46194ZM38.2224 6.38152C38.4959 6.74139 38.6779 7.16088 38.7661 7.64567L39.3564 7.53833C39.2526 6.96712 39.0346 6.45861 38.7001 6.01847L38.2224 6.38152ZM38.7682 7.65611C38.8755 8.14689 38.9292 8.6454 38.9292 9.152H39.5293C39.5293 8.6026 39.471 8.06111 39.3543 7.52789L38.7682 7.65611ZM38.9292 9.152C38.9292 9.75479 38.9134 10.3981 38.8816 11.0821L39.4809 11.1099C39.5131 10.4179 39.5293 9.76521 39.5293 9.152H38.9292ZM38.8816 11.0821C38.8495 11.7724 38.8254 12.4627 38.8093 13.153L39.4092 13.167C39.4251 12.4813 39.449 11.7956 39.4809 11.1099L38.8816 11.0821ZM38.8092 13.16C38.8092 13.9719 38.858 14.7453 38.9559 15.4796L39.5506 15.4004C39.4565 14.6947 39.4093 13.9481 39.4093 13.16H38.8092ZM39.2533 15.74H40.8613V15.14H39.2533V15.74ZM40.5612 15.44V17H41.1613V15.44H40.5612ZM40.8613 16.7H37.6693V17.3H40.8613V16.7ZM37.9671 16.9643L37.7511 15.1643L37.1554 15.2357L37.3714 17.0357L37.9671 16.9643ZM37.4533 14.9H37.3333V15.5H37.4533V14.9ZM37.0836 15.0336C36.9974 15.163 36.8623 15.3365 36.6735 15.5568L37.129 15.9472C37.3242 15.7195 37.4771 15.525 37.5829 15.3664L37.0836 15.0336ZM36.6735 15.5568C36.5022 15.7566 36.2668 15.9643 35.9612 16.1782L36.3053 16.6698C36.6397 16.4357 36.9163 16.1954 37.129 15.9472L36.6735 15.5568ZM35.9638 16.1764C35.6862 16.3664 35.3348 16.5398 34.9044 16.6935L35.1062 17.2585C35.5718 17.0922 35.9723 16.8976 36.3027 16.6716L35.9638 16.1764ZM34.9044 16.6935C34.4963 16.8392 34.004 16.916 33.4212 16.916V17.516C34.0545 17.516 34.6182 17.4328 35.1062 17.2585L34.9044 16.6935ZM33.4212 16.916C32.2887 16.916 31.4307 16.6261 30.8119 16.0792L30.4146 16.5288C31.1718 17.1979 32.1858 17.516 33.4212 17.516V16.916ZM30.8119 16.0792C30.1983 15.537 29.8813 14.7923 29.8813 13.808H29.2812C29.2812 14.9357 29.6522 15.855 30.4146 16.5288L30.8119 16.0792ZM29.8813 13.808C29.8813 13.0349 30.0478 12.4152 30.3611 11.931L29.8574 11.605C29.4667 12.2088 29.2812 12.9491 29.2812 13.808H29.8813ZM30.3577 11.9361C30.6899 11.445 31.1621 11.0637 31.7874 10.7957L31.5511 10.2443C30.8324 10.5523 30.2646 11.003 29.8608 11.5999L30.3577 11.9361ZM31.7874 10.7957C32.4188 10.5252 33.1901 10.3623 34.1085 10.3156L34.078 9.71639C33.1084 9.76569 32.2637 9.93885 31.5511 10.2443L31.7874 10.7957ZM34.1082 10.3156C35.0444 10.2688 36.0962 10.331 37.2651 10.5047L37.3534 9.91126C36.1543 9.73303 35.0621 9.66718 34.0783 9.71637L34.1082 10.3156ZM37.6075 10.2404C37.6889 9.49164 37.699 8.8573 37.6306 8.34435L37.0359 8.42365C37.0955 8.8707 37.0896 9.45236 37.011 10.1756L37.6075 10.2404ZM37.6319 8.3551C37.5807 7.82641 37.4417 7.37745 37.1925 7.03235L36.706 7.38365C36.8728 7.61455 36.9898 7.94959 37.0346 8.4129L37.6319 8.3551ZM37.1989 7.04159C36.964 6.68933 36.6231 6.45081 36.1966 6.321L36.0219 6.895C36.3314 6.98918 36.5505 7.15066 36.6996 7.37441L37.1989 7.04159ZM36.2118 6.32606C35.8165 6.18231 35.339 6.116 34.7892 6.116V6.716C35.2955 6.716 35.698 6.77769 36.0067 6.88994L36.2118 6.32606ZM34.7892 6.116C34.0399 6.116 33.3212 6.22431 32.6346 6.44203L32.8159 7.01397C33.4413 6.81569 34.0986 6.716 34.7892 6.716V6.116ZM32.641 6.44008C31.9774 6.63429 31.3836 6.83749 30.8603 7.05006L31.0862 7.60594C31.5869 7.40251 32.1611 7.20571 32.8095 7.01592L32.641 6.44008ZM31.2487 7.20925L30.6487 5.81725L30.0978 6.05475L30.6978 7.44675L31.2487 7.20925ZM33.9012 15.908C34.3819 15.908 34.8339 15.8306 35.2546 15.6729L35.0439 15.1111C34.6966 15.2414 34.3166 15.308 33.9012 15.308V15.908ZM35.2546 15.6729C35.6635 15.5196 36.0268 15.3215 36.3414 15.0768L35.9731 14.6032C35.7117 14.8065 35.403 14.9764 35.0439 15.1111L35.2546 15.6729ZM36.3414 15.0768C36.6476 14.8387 36.9072 14.5801 37.1172 14.3L36.6372 13.94C36.4633 14.1719 36.2429 14.3933 35.9731 14.6032L36.3414 15.0768ZM37.1223 14.293C37.3242 14.007 37.481 13.7304 37.5878 13.4634L37.0307 13.2406C36.9455 13.4536 36.8143 13.689 36.6322 13.947L37.1223 14.293ZM37.6092 13.352V11.672H37.0093V13.352H37.6092ZM37.3604 11.3764C36.5147 11.23 35.7294 11.156 35.0052 11.156V11.756C35.6891 11.756 36.4398 11.826 37.2581 11.9676L37.3604 11.3764ZM35.0052 11.156C34.2798 11.156 33.6402 11.2383 33.0918 11.4097L33.2707 11.9823C33.7463 11.8337 34.3227 11.756 35.0052 11.756V11.156ZM33.1 11.4072C32.5463 11.563 32.0923 11.8202 31.7583 12.1913L32.2042 12.5927C32.4462 12.3238 32.7922 12.117 33.2625 11.9848L33.1 11.4072ZM31.7583 12.1913C31.4116 12.5765 31.2492 13.0687 31.2492 13.64H31.8493C31.8493 13.1873 31.9749 12.8475 32.2042 12.5927L31.7583 12.1913ZM31.2492 13.64C31.2492 14.2417 31.4523 14.776 31.852 15.2302L32.3025 14.8338C31.9982 14.488 31.8493 14.0943 31.8493 13.64H31.2492ZM31.8607 15.2396C32.3112 15.7097 33.0186 15.908 33.9012 15.908V15.308C33.0879 15.308 32.5793 15.1223 32.2938 14.8244L31.8607 15.2396ZM42.9159 5V4.7H42.6159V5H42.9159ZM45.7719 5V5.3H46.0719V5H45.7719ZM45.7719 2.624L45.6904 2.33526L45.4719 2.39691V2.624H45.7719ZM47.6439 2.096H47.9439V1.69968L47.5624 1.80726L47.6439 2.096ZM47.6439 5H47.3439V5.3H47.6439V5ZM54.0519 5H54.3519V4.7H54.0519V5ZM54.0519 6.608V6.908H54.3519V6.608H54.0519ZM47.6439 6.608V6.308H47.3439V6.608H47.6439ZM48.4839 14.864L48.2717 15.0762L48.2748 15.0791L48.4839 14.864ZM52.8039 15.296L52.6697 15.0277L52.6665 15.0293L52.8039 15.296ZM54.2679 14.408L54.5424 14.287L54.391 13.9435L54.0893 14.1669L54.2679 14.408ZM54.8919 15.824L55.0793 16.0583L55.2594 15.9141L55.1664 15.703L54.8919 15.824ZM52.8759 16.904L52.7775 16.6206L52.7757 16.6212L52.8759 16.904ZM48.6759 17.024L48.7708 16.7394L48.7658 16.7378L48.6759 17.024ZM47.1879 16.184L46.9886 16.4082L47.1879 16.184ZM46.1559 14.72L45.8794 14.8364L45.8805 14.8391L46.1559 14.72ZM45.7719 6.608H46.0719V6.308H45.7719V6.608ZM42.9159 6.608H42.6159V6.908H42.9159V6.608ZM42.9159 5.3H45.7719V4.7H42.9159V5.3ZM46.0719 5V2.624H45.4719V5H46.0719ZM45.8533 2.91273L47.7253 2.38473L47.5624 1.80726L45.6904 2.33526L45.8533 2.91273ZM47.3439 2.096V5H47.9439V2.096H47.3439ZM47.6439 5.3H54.0519V4.7H47.6439V5.3ZM53.7519 5V6.608H54.3519V5H53.7519ZM54.0519 6.308H47.6439V6.908H54.0519V6.308ZM47.3439 6.608V12.272H47.9439V6.608H47.3439ZM47.3439 12.272C47.3439 13.482 47.6336 14.4379 48.2717 15.0761L48.696 14.6519C48.2142 14.1701 47.9439 13.398 47.9439 12.272H47.3439ZM48.2748 15.0791C48.9226 15.709 49.8232 16.004 50.9319 16.004V15.404C49.9286 15.404 49.1971 15.139 48.693 14.6489L48.2748 15.0791ZM50.9319 16.004C51.6896 16.004 52.3627 15.8608 52.9413 15.5627L52.6665 15.0293C52.1891 15.2752 51.6141 15.404 50.9319 15.404V16.004ZM52.938 15.5643C53.4956 15.2855 53.9988 14.9807 54.4464 14.6491L54.0893 14.1669C53.673 14.4753 53.2001 14.7625 52.6697 15.0277L52.938 15.5643ZM53.9934 14.529L54.6174 15.945L55.1664 15.703L54.5424 14.287L53.9934 14.529ZM54.7045 15.5897C54.175 16.0133 53.5342 16.358 52.7775 16.6206L52.9742 17.1874C53.7855 16.906 54.4888 16.5307 55.0793 16.0583L54.7045 15.5897ZM52.7757 16.6212C52.0399 16.8818 51.2818 17.012 50.4999 17.012V17.612C51.3499 17.612 52.1758 17.4702 52.976 17.1868L52.7757 16.6212ZM50.4999 17.012C49.8904 17.012 49.3145 16.9207 48.7707 16.7394L48.581 17.3086C49.1892 17.5113 49.8294 17.612 50.4999 17.612V17.012ZM48.7658 16.7378C48.2456 16.5743 47.787 16.3152 47.3872 15.9598L46.9886 16.4082C47.4527 16.8208 47.9862 17.1217 48.5859 17.3102L48.7658 16.7378ZM47.3872 15.9598C46.9915 15.6081 46.6719 15.1574 46.4312 14.6009L45.8805 14.8391C46.1519 15.4666 46.5202 15.9919 46.9886 16.4082L47.3872 15.9598ZM46.4324 14.6036C46.1954 14.0407 46.0719 13.3621 46.0719 12.56H45.4719C45.4719 13.4219 45.6044 14.1833 45.8794 14.8364L46.4324 14.6036ZM46.0719 12.56V6.608H45.4719V12.56H46.0719ZM45.7719 6.308H42.9159V6.908H45.7719V6.308ZM43.2159 6.608V5H42.6159V6.608H43.2159ZM59.0825 17H58.7825V17.3H59.0825V17ZM59.0825 15.392V15.092H58.7825V15.392H59.0825ZM63.2585 15.392V15.692H63.5585V15.392H63.2585ZM63.2585 6.608H63.5585V6.308H63.2585V6.608ZM59.0825 6.608H58.7825V6.908H59.0825V6.608ZM59.0825 5V4.7H58.7825V5H59.0825ZM65.1785 5H65.4785V4.7H65.1785V5ZM65.1785 15.392H64.8785V15.692H65.1785V15.392ZM69.2585 15.392H69.5585V15.092H69.2585V15.392ZM69.2585 17V17.3H69.5585V17H69.2585ZM63.0425 0.487999L63.2604 0.69439L63.2655 0.688689L63.0425 0.487999ZM65.2985 0.487999L65.081 0.694624L65.0863 0.700201L65.0919 0.705499L65.2985 0.487999ZM65.2985 2.648L65.0977 2.42494L65.0922 2.43021L65.2985 2.648ZM59.3825 17V15.392H58.7825V17H59.3825ZM59.0825 15.692H63.2585V15.092H59.0825V15.692ZM63.5585 15.392V6.608H62.9585V15.392H63.5585ZM63.2585 6.308H59.0825V6.908H63.2585V6.308ZM59.3825 6.608V5H58.7825V6.608H59.3825ZM59.0825 5.3H65.1785V4.7H59.0825V5.3ZM64.8785 5V15.392H65.4785V5H64.8785ZM65.1785 15.692H69.2585V15.092H65.1785V15.692ZM68.9585 15.392V17H69.5585V15.392H68.9585ZM69.2585 16.7H59.0825V17.3H69.2585V16.7ZM62.9105 1.592C62.9105 1.23407 63.0269 0.940676 63.2603 0.694323L62.8247 0.281676C62.4821 0.643323 62.3105 1.08593 62.3105 1.592H62.9105ZM63.2655 0.688689C63.494 0.43476 63.7796 0.308 64.1465 0.308V-0.292C63.6174 -0.292 63.167 -0.0987599 62.8195 0.28731L63.2655 0.688689ZM64.1465 0.308C64.533 0.308 64.8368 0.437586 65.081 0.694624L65.516 0.281374C65.1522 -0.101587 64.688 -0.292 64.1465 -0.292V0.308ZM65.0919 0.705499C65.3537 0.954251 65.4785 1.24423 65.4785 1.592H66.0785C66.0785 1.07577 65.8833 0.629748 65.5051 0.2705L65.0919 0.705499ZM65.4785 1.592C65.4785 1.91964 65.3571 2.19165 65.0978 2.42501L65.4992 2.87099C65.8799 2.52835 66.0785 2.09636 66.0785 1.592H65.4785ZM65.0922 2.43021C64.8501 2.65953 64.5428 2.78 64.1465 2.78V3.38C64.6782 3.38 65.1389 3.21247 65.5048 2.86578L65.0922 2.43021ZM64.1465 2.78C63.7693 2.78 63.4805 2.66172 63.2546 2.43587L62.8304 2.86013C63.1805 3.21028 63.6277 3.38 64.1465 3.38V2.78ZM63.2546 2.43587C63.0242 2.20546 62.9105 1.93034 62.9105 1.592H62.3105C62.3105 2.08566 62.4848 2.51454 62.8304 2.86013L63.2546 2.43587ZM83.6491 15.488L83.8484 15.7122L84.0265 15.554L83.9127 15.3447L83.6491 15.488ZM82.6171 16.208L82.4705 15.9462L82.466 15.9489L82.6171 16.208ZM81.3451 16.784L81.4429 17.0676L81.3451 16.784ZM79.8811 17.144L79.8348 16.8474L79.8241 16.8495L79.8811 17.144ZM75.8251 16.856L75.7106 17.1333L75.7158 17.1354L75.8251 16.856ZM73.9771 15.584L73.7525 15.7829L73.7554 15.7861L73.9771 15.584ZM72.8491 13.592L72.5645 13.6869L72.8491 13.592ZM72.8731 8.312L72.5915 8.20854L72.5897 8.21367L72.8731 8.312ZM74.0971 6.344L73.885 6.13187L74.0971 6.344ZM76.0171 5.144L76.1192 5.42616L76.1244 5.42416L76.0171 5.144ZM80.5291 4.976L80.6069 4.68625L80.5291 4.976ZM82.2571 5.984L82.0449 6.19624L82.0519 6.20286L82.2571 5.984ZM83.4331 8L83.147 8.09009L83.1475 8.09163L83.4331 8ZM83.7211 11.312V11.612H84.004L84.0206 11.3296L83.7211 11.312ZM74.4331 11.312V11.012H74.1331V11.312H74.4331ZM75.5851 14.552L75.3799 14.7709L75.3847 14.7752L75.5851 14.552ZM79.9771 15.464L80.0446 15.7564L80.0524 15.7544L79.9771 15.464ZM81.2011 15.08L81.0958 14.7991L81.2011 15.08ZM82.2091 14.6L82.0588 14.3403L82.0527 14.344L82.2091 14.6ZM82.9051 14.12L83.1687 13.9767L82.987 13.6427L82.7044 13.897L82.9051 14.12ZM77.0731 6.464L77.005 6.17184L77.0027 6.17237L77.0731 6.464ZM75.8251 7.04L76.0016 7.28263L76.0034 7.28125L75.8251 7.04ZM74.9371 8.072L74.6749 7.92629L74.673 7.92977L74.9371 8.072ZM74.5051 9.632L74.2067 9.60139L74.1728 9.932H74.5051V9.632ZM81.9691 9.632V9.932H82.2927L82.2683 9.60934L81.9691 9.632ZM80.9371 7.184L80.7249 7.39621L80.7308 7.40179L80.9371 7.184ZM83.4498 15.2638C83.1807 15.503 82.8551 15.7309 82.4705 15.9462L82.7637 16.4698C83.1791 16.2371 83.5416 15.985 83.8484 15.7122L83.4498 15.2638ZM82.466 15.9489C82.1006 16.162 81.6947 16.3461 81.2473 16.5004L81.4429 17.0676C81.9236 16.9019 82.3657 16.702 82.7683 16.4671L82.466 15.9489ZM81.2473 16.5004C80.801 16.6543 80.3303 16.7702 79.8348 16.8476L79.9274 17.4404C80.456 17.3578 80.9613 17.2337 81.4429 17.0676L81.2473 16.5004ZM79.8241 16.8495C79.3472 16.9418 78.8623 16.988 78.3691 16.988V17.588C78.9 17.588 79.4231 17.5382 79.9381 17.4385L79.8241 16.8495ZM78.3691 16.988C77.4387 16.988 76.629 16.8484 75.9344 16.5766L75.7158 17.1354C76.4932 17.4396 77.3795 17.588 78.3691 17.588V16.988ZM75.9397 16.5787C75.2411 16.2902 74.6627 15.8906 74.1988 15.3819L73.7554 15.7861C74.2836 16.3654 74.9372 16.8138 75.7106 17.1333L75.9397 16.5787ZM74.2017 15.3851C73.7347 14.8578 73.378 14.2299 73.1337 13.4971L72.5645 13.6869C72.8323 14.4901 73.2276 15.1902 73.7525 15.7829L74.2017 15.3851ZM73.1337 13.4971C72.8896 12.7648 72.7651 11.9336 72.7651 11H72.1651C72.1651 11.9864 72.2966 12.8832 72.5645 13.6869L73.1337 13.4971ZM72.7651 11C72.7651 10.0185 72.8976 9.15675 73.1566 8.41033L72.5897 8.21367C72.3047 9.03525 72.1651 9.96548 72.1651 11H72.7651ZM73.1547 8.41544C73.4295 7.66741 73.8155 7.0499 74.3093 6.55613L73.885 6.13187C73.3228 6.6941 72.8927 7.38859 72.5915 8.20855L73.1547 8.41544ZM74.3093 6.55613C74.804 6.06142 75.4056 5.68423 76.1192 5.42611L75.9151 4.86189C75.1247 5.14777 74.4463 5.57057 73.885 6.13187L74.3093 6.55613ZM76.1244 5.42416C76.8374 5.15111 77.6403 5.012 78.5371 5.012V4.412C77.578 4.412 76.7009 4.56089 75.9098 4.86384L76.1244 5.42416ZM78.5371 5.012C79.1826 5.012 79.8205 5.09648 80.4514 5.26575L80.6069 4.68625C79.9258 4.50352 79.2357 4.412 78.5371 4.412V5.012ZM80.4514 5.26575C81.0548 5.42766 81.5849 5.73607 82.045 6.19613L82.4693 5.77187C81.9373 5.23993 81.3154 4.87634 80.6069 4.68625L80.4514 5.26575ZM82.0519 6.20286C82.5169 6.6388 82.8861 7.26131 83.147 8.09009L83.7193 7.90991C83.4362 7.01069 83.0213 6.2892 82.4623 5.76514L82.0519 6.20286ZM83.1475 8.09163C83.4038 8.89082 83.5005 9.95381 83.4216 11.2944L84.0206 11.3296C84.1018 9.95019 84.0064 8.80517 83.7188 7.90837L83.1475 8.09163ZM83.7211 11.012H74.4331V11.612H83.7211V11.012ZM74.1331 11.312C74.1331 12.8034 74.5317 13.9757 75.3799 14.7709L75.7903 14.3331C75.1025 13.6883 74.7331 12.7006 74.7331 11.312H74.1331ZM75.3847 14.7752C76.2357 15.5394 77.3529 15.908 78.7051 15.908V15.308C77.4653 15.308 76.5026 14.9726 75.7856 14.3288L75.3847 14.7752ZM78.7051 15.908C79.1596 15.908 79.6062 15.8575 80.0446 15.7563L79.9097 15.1717C79.5161 15.2625 79.1147 15.308 78.7051 15.308V15.908ZM80.0524 15.7544C80.4937 15.64 80.9118 15.5089 81.3065 15.3609L81.0958 14.7991C80.7225 14.9391 80.3245 15.064 79.9018 15.1736L80.0524 15.7544ZM81.3065 15.3609C81.7046 15.2116 82.0583 15.0437 82.3656 14.856L82.0527 14.344C81.7839 14.5083 81.4657 14.6604 81.0958 14.7991L81.3065 15.3609ZM82.3594 14.8596C82.6717 14.6789 82.9238 14.5068 83.1058 14.343L82.7044 13.897C82.5665 14.0212 82.3546 14.1691 82.0588 14.3404L82.3594 14.8596ZM82.6416 14.2633L83.3856 15.6313L83.9127 15.3447L83.1687 13.9767L82.6416 14.2633ZM78.5851 5.996C78.0358 5.996 77.5088 6.05428 77.005 6.17185L77.1413 6.75615C77.5974 6.64972 78.0785 6.596 78.5851 6.596V5.996ZM77.0027 6.17237C76.5015 6.29337 76.0484 6.50189 75.6468 6.79875L76.0034 7.28125C76.3378 7.03411 76.7168 6.85863 77.1435 6.75562L77.0027 6.17237ZM75.6487 6.79738C75.2569 7.08233 74.9332 7.46132 74.6749 7.92631L75.1994 8.21769C75.421 7.81868 75.6894 7.50967 76.0016 7.28262L75.6487 6.79738ZM74.673 7.92977C74.4253 8.38969 74.2735 8.95042 74.2067 9.60139L74.8036 9.66261C74.8648 9.06558 75.0009 8.58631 75.2013 8.21423L74.673 7.92977ZM74.5051 9.932H81.9691V9.332H74.5051V9.932ZM82.2683 9.60934C82.1842 8.4994 81.8187 7.60597 81.1434 6.96621L80.7308 7.40179C81.2715 7.91402 81.5941 8.65259 81.67 9.65466L82.2683 9.60934ZM81.1493 6.97187C80.4917 6.31428 79.6264 5.996 78.5851 5.996V6.596C79.4958 6.596 80.1986 6.86972 80.725 7.39613L81.1493 6.97187ZM91.6318 17H91.3317V17.3H91.6318V17ZM91.5837 8.048L91.2841 8.06298L91.2845 8.07121L91.2854 8.0794L91.5837 8.048ZM91.4157 7.208L91.1294 7.29748L91.1329 7.3086L91.1372 7.31942L91.4157 7.208ZM91.0318 6.608L90.8308 6.83123L90.8418 6.84019L91.0318 6.608ZM88.9918 7.064L88.7639 6.86872L88.7599 6.87358L88.9918 7.064ZM88.1517 8.744L87.8633 8.66158L87.8518 8.70198V8.744H88.1517ZM88.1517 17V17.3H88.4518V17H88.1517ZM86.3278 17H86.0277V17.3H86.3278V17ZM86.3278 5V4.7H86.0277V5H86.3278ZM87.5758 5L87.8671 4.92836L87.8109 4.7H87.5758V5ZM87.9358 6.464L87.6444 6.53564L87.7006 6.764H87.9358V6.464ZM88.0318 6.464V6.764H88.1923L88.2814 6.63041L88.0318 6.464ZM88.4877 5.792L88.2436 5.61761L88.2411 5.62124L88.4877 5.792ZM89.0157 5.216L88.8327 4.97803L88.8237 4.98553L89.0157 5.216ZM89.7357 4.856L89.8204 5.14381L89.8281 5.14155L89.8356 5.1389L89.7357 4.856ZM91.5117 4.832L91.4223 5.11834L91.4306 5.12093L91.439 5.12304L91.5117 4.832ZM92.2077 5.168L92.0248 5.40579L92.0349 5.41351L92.0455 5.42035L92.2077 5.168ZM92.7838 5.768L92.5294 5.927L92.7838 5.768ZM93.0957 6.704L92.7983 6.7428L92.9111 7.6077L93.3542 6.85639L93.0957 6.704ZM94.3197 5.24L94.1384 5.00096L94.1344 5.0041L94.3197 5.24ZM97.4877 4.976L97.3431 5.23892L97.3485 5.24175L97.4877 4.976ZM98.2558 5.744L97.99 5.8832L97.994 5.8909L97.9985 5.89835L98.2558 5.744ZM98.6397 6.92L98.3423 6.96102L98.3444 6.97274L98.6397 6.92ZM98.7598 17V17.3H99.0598V17H98.7598ZM96.9358 17H96.6357V17.3H96.9358V17ZM96.8877 7.904L96.5894 7.93541L96.5896 7.93713L96.8877 7.904ZM96.6957 7.112L96.4132 7.2129L96.4164 7.22164L96.42 7.23018L96.6957 7.112ZM96.3358 6.584L96.1364 6.80822L96.1423 6.8134L96.1483 6.81826L96.3358 6.584ZM94.3197 7.064L94.092 6.86876L94.3197 7.064ZM93.4557 8.984L93.1634 8.91654L93.1558 8.94983V8.984H93.4557ZM93.4557 17V17.3H93.7558V17H93.4557ZM91.9317 17V9.008H91.3317V17H91.9317ZM91.9317 9.008C91.9317 8.66253 91.9153 8.33199 91.8821 8.01659L91.2854 8.0794C91.3162 8.37201 91.3317 8.68147 91.3317 9.008H91.9317ZM91.8834 8.03302C91.8661 7.68754 91.8051 7.3737 91.6943 7.09658L91.1372 7.31942C91.2184 7.5223 91.2694 7.76846 91.2841 8.06298L91.8834 8.03302ZM91.7021 7.11852C91.6078 6.81679 91.4507 6.56319 91.2217 6.37581L90.8418 6.84019C90.9648 6.94081 91.0637 7.08721 91.1294 7.29748L91.7021 7.11852ZM91.2324 6.38501C91.004 6.17938 90.7096 6.092 90.3838 6.092V6.692C90.6019 6.692 90.7395 6.74862 90.8311 6.83099L91.2324 6.38501ZM90.3838 6.092C89.7441 6.092 89.1995 6.36064 88.764 6.86876L89.2195 7.25924C89.552 6.87136 89.9354 6.692 90.3838 6.692V6.092ZM88.7599 6.87358C88.3611 7.35914 88.0643 7.95803 87.8633 8.66158L88.4402 8.82642C88.6232 8.18597 88.8864 7.66486 89.2236 7.25442L88.7599 6.87358ZM87.8518 8.744V17H88.4518V8.744H87.8518ZM88.1517 16.7H86.3278V17.3H88.1517V16.7ZM86.6277 17V5H86.0277V17H86.6277ZM86.3278 5.3H87.5758V4.7H86.3278V5.3ZM87.2844 5.07164L87.6444 6.53564L88.2271 6.39236L87.8671 4.92836L87.2844 5.07164ZM87.9358 6.764H88.0318V6.164H87.9358V6.764ZM88.2814 6.63041C88.4405 6.39167 88.5915 6.16914 88.7344 5.96276L88.2411 5.62124C88.096 5.83086 87.943 6.05633 87.7821 6.29759L88.2814 6.63041ZM88.7319 5.96637C88.8785 5.76113 89.0374 5.5885 89.2078 5.44647L88.8237 4.98553C88.6101 5.1635 88.417 5.37487 88.2436 5.61763L88.7319 5.96637ZM89.1987 5.45379C89.375 5.31815 89.5811 5.21419 89.8204 5.14381L89.6511 4.56819C89.3464 4.6578 89.0725 4.79385 88.8328 4.97821L89.1987 5.45379ZM89.8356 5.1389C90.0647 5.05802 90.372 5.012 90.7678 5.012V4.412C90.3315 4.412 89.9508 4.46197 89.6359 4.5731L89.8356 5.1389ZM90.7678 5.012C90.9741 5.012 91.1919 5.04634 91.4223 5.11834L91.6012 4.54566C91.3196 4.45765 91.0414 4.412 90.7678 4.412V5.012ZM91.439 5.12304C91.6552 5.1771 91.8497 5.27106 92.0248 5.40579L92.3907 4.93021C92.1498 4.74494 91.8803 4.6149 91.5845 4.54096L91.439 5.12304ZM92.0455 5.42035C92.2276 5.5374 92.3897 5.7035 92.5294 5.927L93.0381 5.609C92.8578 5.32049 92.6359 5.0866 92.37 4.91565L92.0455 5.42035ZM92.5294 5.927C92.6619 6.13911 92.7546 6.40793 92.7983 6.7428L93.3932 6.6652C93.3409 6.26406 93.2256 5.90889 93.0381 5.609L92.5294 5.927ZM93.3542 6.85639C93.7081 6.25618 94.0932 5.79953 94.5051 5.47589L94.1344 5.0041C93.6503 5.38447 93.2194 5.90382 92.8373 6.5516L93.3542 6.85639ZM94.5011 5.47901C94.8965 5.179 95.4572 5.012 96.2158 5.012V4.412C95.3743 4.412 94.671 4.59699 94.1384 5.00099L94.5011 5.47901ZM96.2158 5.012C96.7143 5.012 97.0828 5.09569 97.3432 5.23886L97.6323 4.71313C97.2527 4.50431 96.7732 4.412 96.2158 4.412V5.012ZM97.3485 5.24175C97.6305 5.38942 97.8423 5.60128 97.99 5.8832L98.5215 5.6048C98.3172 5.21472 98.017 4.91458 97.627 4.71025L97.3485 5.24175ZM97.9985 5.89835C98.1651 6.17601 98.2827 6.5272 98.3426 6.96099L98.9369 6.87901C98.8688 6.3848 98.7304 5.95199 98.513 5.58965L97.9985 5.89835ZM98.3444 6.97274C98.4207 7.3999 98.4597 7.88582 98.4597 8.432H99.0598C99.0598 7.85818 99.0188 7.3361 98.9351 6.86726L98.3444 6.97274ZM98.4597 8.432V17H99.0598V8.432H98.4597ZM98.7598 16.7H96.9358V17.3H98.7598V16.7ZM97.2357 17V8.84H96.6357V17H97.2357ZM97.2357 8.84C97.2357 8.49463 97.2193 8.17144 97.1859 7.87087L96.5896 7.93713C96.6202 8.21256 96.6357 8.51337 96.6357 8.84H97.2357ZM97.1861 7.87259C97.1517 7.54595 97.0819 7.25143 96.9715 6.99382L96.42 7.23018C96.5016 7.42057 96.5598 7.65405 96.5894 7.93541L97.1861 7.87259ZM96.9783 7.0111C96.8826 6.74326 96.7332 6.51779 96.5232 6.34974L96.1483 6.81826C96.2583 6.90621 96.3489 7.03274 96.4132 7.2129L96.9783 7.0111ZM96.5351 6.35978C96.3202 6.1688 96.0407 6.092 95.7357 6.092V6.692C95.9428 6.692 96.0633 6.7432 96.1364 6.80822L96.5351 6.35978ZM95.7357 6.092C95.083 6.092 94.5295 6.35834 94.092 6.86876L94.5475 7.25924C94.878 6.87366 95.2685 6.692 95.7357 6.692V6.092ZM94.092 6.86876C93.6655 7.36627 93.3618 8.05701 93.1634 8.91654L93.7481 9.05146C93.9337 8.24699 94.206 7.65773 94.5475 7.25924L94.092 6.86876ZM93.1558 8.984V17H93.7558V8.984H93.1558ZM93.4557 16.7H91.6318V17.3H93.4557V16.7ZM102.326 5.936L102.176 5.67665L101.946 5.81039L102.051 6.05475L102.326 5.936ZM104.654 5.072L104.714 5.36596L104.654 5.072ZM109.19 5.192L109.056 5.46035L109.059 5.46194L109.19 5.192ZM110.414 6.2L110.167 6.37093L110.176 6.38152L110.414 6.2ZM111.014 7.592L110.719 7.6457L110.721 7.65611L111.014 7.592ZM111.062 13.16L110.762 13.153V13.16H111.062ZM111.206 15.44L110.909 15.4796L110.944 15.74H111.206V15.44ZM112.814 15.44H113.114V15.14H112.814V15.44ZM112.814 17V17.3H113.114V17H112.814ZM109.622 17L109.325 17.0357L109.356 17.3H109.622V17ZM109.406 15.2L109.704 15.1643L109.673 14.9H109.406V15.2ZM109.286 15.2V14.9H109.126L109.037 15.0336L109.286 15.2ZM108.086 16.424L108.256 16.6716L108.258 16.6698L108.086 16.424ZM106.958 16.976L107.059 17.2585H107.059L106.958 16.976ZM102.566 16.304L102.765 16.0792L102.566 16.304ZM102.062 11.768L101.814 11.5999L101.811 11.605L102.062 11.768ZM103.622 10.52L103.504 10.2443L103.622 10.52ZM106.046 10.016L106.031 9.71637L106.031 9.71639L106.046 10.016ZM109.262 10.208L109.218 10.5047L109.527 10.5506L109.561 10.2404L109.262 10.208ZM109.286 8.384L108.988 8.41292L108.989 8.42365L109.286 8.384ZM108.902 7.208L108.653 7.37453L108.659 7.38365L108.902 7.208ZM108.062 6.608L107.96 6.88994L107.967 6.89267L107.975 6.895L108.062 6.608ZM104.678 6.728L104.763 7.01599L104.769 7.01397L104.678 6.728ZM102.926 7.328L102.651 7.44675L102.767 7.7165L103.039 7.60594L102.926 7.328ZM107.102 15.392L106.997 15.1111L107.102 15.392ZM108.11 14.84L107.926 14.6032V14.6032L108.11 14.84ZM108.83 14.12L109.07 14.3001L109.075 14.293L108.83 14.12ZM109.262 13.352L109.541 13.4634L109.562 13.4098V13.352H109.262ZM109.262 11.672H109.562V11.4195L109.314 11.3764L109.262 11.672ZM105.134 11.696L105.216 11.9849L105.224 11.9823L105.134 11.696ZM103.934 12.392L104.157 12.5927L103.934 12.392ZM104.03 15.032L103.805 15.2304L103.814 15.2396L104.03 15.032ZM102.477 6.19535C103.134 5.81343 103.879 5.53615 104.714 5.36596L104.594 4.77804C103.702 4.95985 102.895 5.25857 102.176 5.67665L102.477 6.19535ZM104.714 5.36596C105.56 5.19374 106.388 5.108 107.198 5.108V4.508C106.345 4.508 105.477 4.59826 104.594 4.77804L104.714 5.36596ZM107.198 5.108C107.986 5.108 108.6 5.23209 109.056 5.46033L109.325 4.92367C108.757 4.6399 108.042 4.508 107.198 4.508V5.108ZM109.059 5.46194C109.549 5.69904 109.914 6.0036 110.168 6.37076L110.661 6.02924C110.339 5.5644 109.888 5.19696 109.321 4.92206L109.059 5.46194ZM110.176 6.38152C110.449 6.74139 110.631 7.16088 110.719 7.64567L111.31 7.53833C111.206 6.96712 110.988 6.45861 110.653 6.01847L110.176 6.38152ZM110.721 7.65611C110.829 8.14689 110.882 8.6454 110.882 9.152H111.482C111.482 8.6026 111.424 8.06111 111.307 7.52789L110.721 7.65611ZM110.882 9.152C110.882 9.75479 110.867 10.3981 110.835 11.0821L111.434 11.1099C111.466 10.4179 111.482 9.76521 111.482 9.152H110.882ZM110.835 11.0821C110.803 11.7724 110.779 12.4627 110.762 13.153L111.362 13.167C111.378 12.4813 111.402 11.7956 111.434 11.1099L110.835 11.0821ZM110.762 13.16C110.762 13.9719 110.811 14.7453 110.909 15.4796L111.504 15.4004C111.41 14.6947 111.362 13.9481 111.362 13.16H110.762ZM111.206 15.74H112.814V15.14H111.206V15.74ZM112.514 15.44V17H113.114V15.44H112.514ZM112.814 16.7H109.622V17.3H112.814V16.7ZM109.92 16.9643L109.704 15.1643L109.109 15.2357L109.325 17.0357L109.92 16.9643ZM109.406 14.9H109.286V15.5H109.406V14.9ZM109.037 15.0336C108.95 15.163 108.815 15.3365 108.627 15.5568L109.082 15.9472C109.277 15.7195 109.43 15.525 109.536 15.3664L109.037 15.0336ZM108.627 15.5568C108.455 15.7566 108.22 15.9643 107.914 16.1782L108.258 16.6698C108.593 16.4357 108.869 16.1954 109.082 15.9472L108.627 15.5568ZM107.917 16.1764C107.639 16.3664 107.288 16.5398 106.857 16.6935L107.059 17.2585C107.525 17.0922 107.925 16.8976 108.256 16.6716L107.917 16.1764ZM106.857 16.6935C106.449 16.8392 105.957 16.916 105.374 16.916V17.516C106.008 17.516 106.571 17.4328 107.059 17.2585L106.857 16.6935ZM105.374 16.916C104.242 16.916 103.384 16.6261 102.765 16.0792L102.368 16.5288C103.125 17.1979 104.139 17.516 105.374 17.516V16.916ZM102.765 16.0792C102.151 15.537 101.834 14.7923 101.834 13.808H101.234C101.234 14.9357 101.605 15.855 102.368 16.5288L102.765 16.0792ZM101.834 13.808C101.834 13.0349 102.001 12.4152 102.314 11.931L101.811 11.605C101.42 12.2088 101.234 12.9491 101.234 13.808H101.834ZM102.311 11.9361C102.643 11.445 103.115 11.0637 103.741 10.7957L103.504 10.2443C102.786 10.5523 102.218 11.003 101.814 11.5999L102.311 11.9361ZM103.741 10.7957C104.372 10.5252 105.143 10.3623 106.062 10.3156L106.031 9.71639C105.062 9.76569 104.217 9.93885 103.504 10.2443L103.741 10.7957ZM106.061 10.3156C106.998 10.2688 108.049 10.331 109.218 10.5047L109.306 9.91126C108.107 9.73303 107.015 9.66718 106.031 9.71637L106.061 10.3156ZM109.561 10.2404C109.642 9.49164 109.652 8.8573 109.584 8.34435L108.989 8.42365C109.049 8.8707 109.043 9.45236 108.964 10.1756L109.561 10.2404ZM109.585 8.3551C109.534 7.82641 109.395 7.37745 109.146 7.03235L108.659 7.38365C108.826 7.61455 108.943 7.94959 108.988 8.4129L109.585 8.3551ZM109.152 7.04159C108.917 6.68933 108.576 6.45081 108.15 6.321L107.975 6.895C108.284 6.98918 108.504 7.15066 108.653 7.37441L109.152 7.04159ZM108.165 6.32606C107.77 6.18231 107.292 6.116 106.742 6.116V6.716C107.249 6.716 107.651 6.77769 107.96 6.88994L108.165 6.32606ZM106.742 6.116C105.993 6.116 105.274 6.22431 104.588 6.44203L104.769 7.01397C105.394 6.81569 106.052 6.716 106.742 6.716V6.116ZM104.594 6.44008C103.931 6.63429 103.337 6.83749 102.813 7.05006L103.039 7.60594C103.54 7.40251 104.114 7.20571 104.763 7.01592L104.594 6.44008ZM103.202 7.20925L102.602 5.81725L102.051 6.05475L102.651 7.44675L103.202 7.20925ZM105.854 15.908C106.335 15.908 106.787 15.8306 107.208 15.6729L106.997 15.1111C106.65 15.2414 106.27 15.308 105.854 15.308V15.908ZM107.208 15.6729C107.617 15.5196 107.98 15.3215 108.295 15.0768L107.926 14.6032C107.665 14.8065 107.356 14.9764 106.997 15.1111L107.208 15.6729ZM108.295 15.0768C108.601 14.8387 108.86 14.5801 109.07 14.3L108.59 13.94C108.416 14.1719 108.196 14.3933 107.926 14.6032L108.295 15.0768ZM109.075 14.293C109.277 14.007 109.434 13.7304 109.541 13.4634L108.984 13.2406C108.899 13.4536 108.767 13.689 108.585 13.947L109.075 14.293ZM109.562 13.352V11.672H108.962V13.352H109.562ZM109.314 11.3764C108.468 11.23 107.683 11.156 106.958 11.156V11.756C107.642 11.756 108.393 11.826 109.211 11.9676L109.314 11.3764ZM106.958 11.156C106.233 11.156 105.593 11.2383 105.045 11.4097L105.224 11.9823C105.699 11.8337 106.276 11.756 106.958 11.756V11.156ZM105.053 11.4072C104.499 11.563 104.045 11.8202 103.711 12.1913L104.157 12.5927C104.399 12.3238 104.745 12.117 105.216 11.9848L105.053 11.4072ZM103.711 12.1913C103.365 12.5765 103.202 13.0687 103.202 13.64H103.802C103.802 13.1873 103.928 12.8475 104.157 12.5927L103.711 12.1913ZM103.202 13.64C103.202 14.2417 103.405 14.776 103.805 15.2302L104.256 14.8338C103.951 14.488 103.802 14.0943 103.802 13.64H103.202ZM103.814 15.2396C104.264 15.7097 104.972 15.908 105.854 15.908V15.308C105.041 15.308 104.532 15.1223 104.247 14.8244L103.814 15.2396ZM121.589 15.152L121.312 15.2667L121.388 15.452H121.589V15.152ZM122.501 15.152V15.452H122.726L122.789 15.2364L122.501 15.152ZM125.477 5V4.7H125.252L125.189 4.91561L125.477 5ZM127.421 5L127.708 5.08872L127.828 4.7H127.421V5ZM124.085 15.776L124.371 15.8659L124.372 15.8647L124.085 15.776ZM123.533 17.672L123.243 17.593L123.242 17.6008L123.533 17.672ZM122.765 19.688L122.501 19.5458L122.765 19.688ZM121.397 21.272L121.217 21.032L121.397 21.272ZM118.469 21.848L118.406 22.1414L118.41 22.1422L118.469 21.848ZM117.797 21.656L117.898 21.3735L117.889 21.3702L117.879 21.3675L117.797 21.656ZM117.173 21.416L117.039 21.6843L117.173 21.416ZM116.741 21.128L116.461 21.0193L116.39 21.2017L116.529 21.3401L116.741 21.128ZM117.413 19.4L117.605 19.1695L117.285 18.9025L117.133 19.2913L117.413 19.4ZM117.797 19.64L117.663 19.9085L117.673 19.9131L117.797 19.64ZM118.349 19.832L118.437 19.5453L118.43 19.5429L118.422 19.541L118.349 19.832ZM118.949 19.976L119.022 19.685L119.01 19.6821L118.998 19.6801L118.949 19.976ZM121.877 17L122.17 17.0624L122.247 16.7H121.877V17ZM120.269 17L119.992 17.1162L120.07 17.3H120.269V17ZM115.229 5V4.7H114.778L114.952 5.11617L115.229 5ZM117.389 5L117.666 4.88531L117.59 4.7H117.389V5ZM121.589 15.452H122.501V14.852H121.589V15.452ZM122.789 15.2364L125.765 5.08439L125.189 4.91561L122.213 15.0676L122.789 15.2364ZM125.477 5.3H127.421V4.7H125.477V5.3ZM127.134 4.91128L123.798 15.6873L124.372 15.8647L127.708 5.08872L127.134 4.91128ZM123.799 15.6861C123.621 16.2505 123.436 16.8862 123.244 17.5931L123.822 17.7509C124.014 17.0498 124.197 16.4215 124.371 15.8659L123.799 15.6861ZM123.242 17.6008C123.071 18.2972 122.824 18.9452 122.501 19.5458L123.029 19.8302C123.378 19.1828 123.643 18.4868 123.824 17.7432L123.242 17.6008ZM122.501 19.5458C122.186 20.1308 121.759 20.6257 121.217 21.032L121.577 21.512C122.187 21.0543 122.672 20.4932 123.029 19.8302L122.501 19.5458ZM121.217 21.032C120.706 21.4151 120.023 21.62 119.141 21.62V22.22C120.115 22.22 120.936 21.9929 121.577 21.512L121.217 21.032ZM119.141 21.62C118.956 21.62 118.752 21.5986 118.528 21.5538L118.41 22.1422C118.666 22.1934 118.91 22.22 119.141 22.22V21.62ZM118.532 21.5547C118.321 21.5095 118.11 21.4492 117.898 21.3735L117.696 21.9385C117.932 22.0228 118.169 22.0905 118.406 22.1413L118.532 21.5547ZM117.879 21.3675C117.672 21.3082 117.481 21.2347 117.307 21.1477L117.039 21.6843C117.249 21.7893 117.474 21.8758 117.715 21.9445L117.879 21.3675ZM117.307 21.1477C117.129 21.0587 117.017 20.9798 116.953 20.9159L116.529 21.3401C116.657 21.4682 116.833 21.5813 117.039 21.6843L117.307 21.1477ZM117.021 21.2367L117.693 19.5087L117.133 19.2913L116.461 21.0193L117.021 21.2367ZM117.221 19.6305C117.341 19.7301 117.49 19.822 117.663 19.9083L117.931 19.3717C117.784 19.298 117.677 19.2299 117.605 19.1695L117.221 19.6305ZM117.673 19.9131C117.866 20.0008 118.067 20.0707 118.276 20.123L118.422 19.541C118.247 19.4973 118.08 19.4392 117.921 19.3669L117.673 19.9131ZM118.261 20.1187C118.48 20.1862 118.693 20.2375 118.9 20.2719L118.998 19.6801C118.821 19.6505 118.634 19.6058 118.437 19.5453L118.261 20.1187ZM118.876 20.267C119.081 20.3181 119.267 20.348 119.429 20.348V19.748C119.335 19.748 119.201 19.7299 119.022 19.685L118.876 20.267ZM119.429 20.348C120.129 20.348 120.716 20.0458 121.175 19.4739C121.625 18.9138 121.95 18.0999 122.17 17.0624L121.584 16.9376C121.372 17.9321 121.073 18.6422 120.707 19.0981C120.35 19.5422 119.929 19.748 119.429 19.748V20.348ZM121.877 16.7H120.269V17.3H121.877V16.7ZM120.546 16.8838L115.506 4.88383L114.952 5.11617L119.992 17.1162L120.546 16.8838ZM115.229 5.3H117.389V4.7H115.229V5.3ZM117.112 5.11469L121.312 15.2667L121.866 15.0373L117.666 4.88531L117.112 5.11469ZM139.052 6.848H139.352V6.63472L139.15 6.56465L139.052 6.848ZM137.852 6.536L137.784 6.8286L137.797 6.83098L137.852 6.536ZM133.1 7.496L133.307 7.7126L133.1 7.496ZM132.284 12.896L132.005 13.0074L132.006 13.0102L132.284 12.896ZM133.244 14.288L133.447 14.0676L133.244 14.288ZM134.732 15.176L134.63 15.4582L134.632 15.459L134.732 15.176ZM138.86 15.104L138.759 14.8213L138.757 14.8221L138.86 15.104ZM140.66 14.096L140.916 13.941L140.732 13.6359L140.463 13.8693L140.66 14.096ZM141.5 15.488L141.695 15.7158L141.888 15.5505L141.756 15.333L141.5 15.488ZM140.66 16.088L140.818 16.3431V16.3431L140.66 16.088ZM139.484 16.688L139.597 16.9659L139.602 16.9637L139.484 16.688ZM138.02 17.12L137.959 16.8262L137.957 16.8265L138.02 17.12ZM133.532 16.856L133.423 17.1358L133.43 17.1383L133.532 16.856ZM131.564 15.584L131.345 15.7898L131.348 15.7929L131.564 15.584ZM130.364 13.592L130.08 13.6903L130.081 13.6922L130.364 13.592ZM130.364 8.312L130.082 8.20854L130.08 8.21367L130.364 8.312ZM131.588 6.344L131.375 6.13187L131.588 6.344ZM133.508 5.144L133.61 5.42616L133.615 5.42416L133.508 5.144ZM138.908 5.024L138.826 5.3127L138.828 5.31314L138.908 5.024ZM140.804 5.72L141.088 5.81487L141.171 5.56803L140.938 5.45167L140.804 5.72ZM140.78 5.792L140.495 5.69713L140.48 5.74332V5.792H140.78ZM140.78 9.128V9.428H141.08V9.128H140.78ZM139.052 9.128H138.752V9.428H139.052V9.128ZM139.15 6.56465C138.766 6.43108 138.351 6.32343 137.906 6.24101L137.797 6.83098C138.216 6.90856 138.601 7.00891 138.953 7.13135L139.15 6.56465ZM137.919 6.24368C137.482 6.14271 137.043 6.092 136.604 6.092V6.692C136.996 6.692 137.39 6.73729 137.784 6.82832L137.919 6.24368ZM136.604 6.092C134.995 6.092 133.738 6.46917 132.892 7.2794L133.307 7.7126C133.998 7.05082 135.077 6.692 136.604 6.692V6.092ZM132.892 7.2794C132.041 8.09515 131.648 9.35919 131.648 11H132.248C132.248 9.44081 132.622 8.36884 133.307 7.7126L132.892 7.2794ZM131.648 11C131.648 11.7359 131.765 12.4066 132.005 13.0074L132.562 12.7846C132.355 12.2654 132.248 11.6721 132.248 11H131.648ZM132.006 13.0102C132.246 13.593 132.591 14.0937 133.04 14.5084L133.447 14.0676C133.064 13.7143 132.769 13.287 132.561 12.7818L132.006 13.0102ZM133.04 14.5084C133.488 14.9217 134.019 15.2377 134.63 15.4582L134.834 14.8938C134.292 14.6983 133.831 14.4223 133.447 14.0676L133.04 14.5084ZM134.632 15.459C135.26 15.6795 135.942 15.788 136.676 15.788V15.188C136.001 15.188 135.387 15.0885 134.831 14.893L134.632 15.459ZM136.676 15.788C137.462 15.788 138.225 15.6539 138.962 15.3859L138.757 14.8221C138.086 15.0661 137.393 15.188 136.676 15.188V15.788ZM138.96 15.3867C139.708 15.1206 140.343 14.7676 140.856 14.3227L140.463 13.8693C140.016 14.2564 139.451 14.5754 138.759 14.8213L138.96 15.3867ZM140.403 14.251L141.243 15.643L141.756 15.333L140.916 13.941L140.403 14.251ZM141.304 15.2602C141.095 15.4395 140.829 15.6305 140.502 15.8329L140.818 16.3431C141.163 16.1295 141.456 15.9205 141.695 15.7158L141.304 15.2602ZM140.502 15.8329C140.181 16.0315 139.803 16.2248 139.365 16.4123L139.602 16.9637C140.061 16.7672 140.466 16.5605 140.818 16.3431L140.502 15.8329ZM139.37 16.4102C138.958 16.5781 138.488 16.7172 137.959 16.8262L138.08 17.4138C138.639 17.2988 139.145 17.1499 139.597 16.9658L139.37 16.4102ZM137.957 16.8265C137.453 16.9336 136.898 16.988 136.292 16.988V17.588C136.933 17.588 137.531 17.5304 138.082 17.4135L137.957 16.8265ZM136.292 16.988C135.279 16.988 134.394 16.8477 133.633 16.5737L133.43 17.1383C134.269 17.4403 135.224 17.588 136.292 17.588V16.988ZM133.64 16.5763C132.892 16.2862 132.274 15.8848 131.779 15.3751L131.348 15.7929C131.91 16.3712 132.603 16.8178 133.423 17.1357L133.64 16.5763ZM131.782 15.3782C131.284 14.8503 130.905 14.2229 130.646 13.4918L130.081 13.6922C130.366 14.4971 130.787 15.1977 131.345 15.7898L131.782 15.3782ZM130.647 13.4937C130.387 12.7453 130.256 11.9151 130.256 11H129.656C129.656 11.9729 129.796 12.8707 130.08 13.6903L130.647 13.4937ZM130.256 11C130.256 10.0185 130.388 9.15675 130.647 8.41033L130.08 8.21367C129.795 9.03525 129.656 9.96548 129.656 11H130.256ZM130.645 8.41544C130.92 7.66741 131.306 7.0499 131.8 6.55613L131.375 6.13187C130.813 6.6941 130.383 7.38859 130.082 8.20855L130.645 8.41544ZM131.8 6.55613C132.294 6.06142 132.896 5.68423 133.61 5.42611L133.406 4.86189C132.615 5.14777 131.937 5.57057 131.375 6.13187L131.8 6.55613ZM133.615 5.42416C134.328 5.15111 135.131 5.012 136.028 5.012V4.412C135.068 4.412 134.191 4.56089 133.4 4.86384L133.615 5.42416ZM136.028 5.012C137.197 5.012 138.127 5.11512 138.826 5.31269L138.989 4.73531C138.216 4.51688 137.226 4.412 136.028 4.412V5.012ZM138.828 5.31314C139.567 5.51769 140.18 5.74348 140.669 5.98833L140.938 5.45167C140.403 5.18452 139.752 4.9463 138.988 4.73486L138.828 5.31314ZM140.519 5.62513L140.495 5.69713L141.064 5.88687L141.088 5.81487L140.519 5.62513ZM140.48 5.792V9.128H141.08V5.792H140.48ZM140.78 8.828H139.052V9.428H140.78V8.828ZM139.352 9.128V6.848H138.752V9.128H139.352ZM145.786 6.416L146.009 6.61669L146.011 6.61511L145.786 6.416ZM152.698 5.216L152.571 5.48795L152.579 5.49112L152.698 5.216ZM154.522 6.536L154.75 6.34076L154.522 6.536ZM155.578 8.528L155.29 8.61201L155.292 8.61748L155.578 8.528ZM155.554 13.616L155.839 13.7109L155.839 13.7091L155.554 13.616ZM154.426 15.584L154.205 15.3819L154.426 15.584ZM152.578 16.856L152.69 17.1346L152.693 17.1333L152.578 16.856ZM147.514 16.808L147.39 17.081L147.395 17.0831L147.514 16.808ZM145.69 15.464L145.462 15.6592L145.69 15.464ZM144.61 13.472L144.322 13.556L144.324 13.5615L144.61 13.472ZM146.458 12.68L146.166 12.7469L146.168 12.7547L146.458 12.68ZM147.13 14.192L147.378 14.0236L147.13 14.192ZM148.306 15.272L148.158 15.533L148.162 15.535L148.306 15.272ZM152.986 14.504L152.754 14.3138L152.754 14.3143L152.986 14.504ZM153.754 9.32L153.462 9.38689L153.464 9.39677L153.754 9.32ZM153.082 7.808L152.834 7.9765L152.838 7.98237L153.082 7.808ZM151.882 6.728L151.734 6.98903L151.738 6.99104L151.882 6.728ZM147.226 7.496L146.994 7.30629L147.226 7.496ZM144.574 11C144.574 9.11636 145.064 7.66733 146.009 6.61669L145.563 6.21531C144.493 7.40467 143.974 9.01163 143.974 11H144.574ZM146.011 6.61511C146.949 5.55783 148.298 5.012 150.106 5.012V4.412C148.17 4.412 146.64 5.00217 145.562 6.21689L146.011 6.61511ZM150.106 5.012C151.082 5.012 151.9 5.17467 152.571 5.48785L152.825 4.94414C152.056 4.58533 151.147 4.412 150.106 4.412V5.012ZM152.579 5.49112C153.277 5.79464 153.847 6.20867 154.294 6.73124L154.75 6.34076C154.238 5.74333 153.592 5.27736 152.818 4.94088L152.579 5.49112ZM154.294 6.73124C154.744 7.25619 155.077 7.88143 155.29 8.612L155.866 8.444C155.631 7.63857 155.26 6.93581 154.75 6.34076L154.294 6.73124ZM155.292 8.61748C155.522 9.35394 155.638 10.1475 155.638 11H156.238C156.238 10.0925 156.114 9.23806 155.865 8.43852L155.292 8.61748ZM155.638 11C155.638 11.9334 155.514 12.7734 155.269 13.5229L155.839 13.7091C156.107 12.8906 156.238 11.9866 156.238 11H155.638ZM155.27 13.5211C155.026 14.2534 154.67 14.8718 154.205 15.3819L154.648 15.7861C155.175 15.2082 155.571 14.5146 155.839 13.7109L155.27 13.5211ZM154.205 15.3819C153.741 15.8906 153.162 16.2902 152.464 16.5787L152.693 17.1333C153.466 16.8138 154.12 16.3654 154.648 15.7861L154.205 15.3819ZM152.467 16.5775C151.788 16.8488 151.003 16.988 150.106 16.988V17.588C151.065 17.588 151.928 17.4392 152.69 17.1345L152.467 16.5775ZM150.106 16.988C149.146 16.988 148.324 16.8331 147.634 16.5329L147.395 17.0831C148.176 17.4229 149.083 17.588 150.106 17.588V16.988ZM147.639 16.5351C146.939 16.2154 146.367 15.7926 145.918 15.2688L145.462 15.6592C145.973 16.2554 146.618 16.7286 147.39 17.0809L147.639 16.5351ZM145.918 15.2688C145.467 14.7424 145.126 14.1152 144.897 13.3825L144.324 13.5615C144.575 14.3648 144.954 15.0656 145.462 15.6592L145.918 15.2688ZM144.898 13.388C144.683 12.6499 144.574 11.8544 144.574 11H143.974C143.974 11.9056 144.09 12.7581 144.322 13.556L144.898 13.388ZM145.966 11C145.966 11.5831 146.033 12.1655 146.166 12.7468L146.751 12.6132C146.628 12.0745 146.566 11.5369 146.566 11H145.966ZM146.168 12.7547C146.32 13.3459 146.557 13.882 146.882 14.3605L147.378 14.0236C147.095 13.606 146.885 13.1341 146.749 12.6053L146.168 12.7547ZM146.882 14.3605C147.212 14.8473 147.639 15.2387 148.158 15.533L148.454 15.011C148.013 14.7613 147.656 14.4327 147.378 14.0236L146.882 14.3605ZM148.162 15.535C148.712 15.8365 149.364 15.98 150.106 15.98V15.38C149.441 15.38 148.893 15.2515 148.451 15.009L148.162 15.535ZM150.106 15.98C151.45 15.98 152.507 15.5654 153.219 14.6937L152.754 14.3143C152.185 15.0106 151.322 15.38 150.106 15.38V15.98ZM153.218 14.6942C153.935 13.82 154.27 12.5729 154.27 11H153.67C153.67 12.4991 153.349 13.588 152.754 14.3138L153.218 14.6942ZM154.27 11C154.27 10.3987 154.195 9.81287 154.044 9.24323L153.464 9.39677C153.601 9.91513 153.67 10.4493 153.67 11H154.27ZM154.047 9.25315C153.91 8.65618 153.67 8.11532 153.326 7.63363L152.838 7.98237C153.134 8.39668 153.342 8.86382 153.462 9.38685L154.047 9.25315ZM153.33 7.63955C152.999 7.15045 152.562 6.75875 152.027 6.46496L151.738 6.99104C152.194 7.24125 152.558 7.56955 152.834 7.97645L153.33 7.63955ZM152.03 6.46699C151.494 6.16331 150.848 6.02 150.106 6.02V6.62C150.772 6.62 151.31 6.74869 151.734 6.98901L152.03 6.46699ZM150.106 6.02C148.762 6.02 147.705 6.4346 146.994 7.30629L147.459 7.68571C148.027 6.9894 148.89 6.62 150.106 6.62V6.02ZM146.994 7.30629C146.292 8.16587 145.966 9.41398 145.966 11H146.566C146.566 9.48202 146.88 8.39413 147.459 7.68571L146.994 7.30629ZM165.673 0.199999V-0.100001H165.373V0.199999H165.673ZM169.561 0.199999H169.861V-0.100001H169.561V0.199999ZM169.585 13.448L169.286 13.4694L169.286 13.471L169.585 13.448ZM169.633 14.12L169.334 14.14L169.334 14.1498L169.336 14.1596L169.633 14.12ZM169.729 14.84L169.431 14.8797L169.432 14.8824L169.729 14.84ZM169.825 15.44L169.53 15.4937L169.575 15.74H169.825V15.44ZM171.433 15.44H171.733V15.14H171.433V15.44ZM171.433 17V17.3H171.733V17H171.433ZM168.241 17L167.943 17.0386L167.977 17.3H168.241V17ZM168.001 15.152L168.298 15.1134L168.264 14.852H168.001V15.152ZM167.905 15.152V14.852H167.732L167.645 15.0017L167.905 15.152ZM166.321 16.688L166.472 16.9474L166.473 16.9463L166.321 16.688ZM159.913 15.776L159.682 15.9674L159.685 15.9712L159.913 15.776ZM159.073 8.36L159.354 8.46534L159.354 8.46344L159.073 8.36ZM160.297 6.416L160.506 6.63137L160.506 6.63127L160.297 6.416ZM165.649 4.832L165.63 5.13142L165.631 5.13148L165.649 4.832ZM166.393 4.904L166.35 5.20098L166.393 4.904ZM167.017 5.048L166.922 5.3326L166.936 5.33711L166.949 5.34032L167.017 5.048ZM167.689 5.216L167.612 5.50587L167.989 5.60648V5.216H167.689ZM167.689 1.808H167.989V1.508H167.689V1.808ZM165.673 1.808H165.373V2.108H165.673V1.808ZM166.537 14.936L166.736 15.1606L166.739 15.1574L166.537 14.936ZM167.689 12.656L167.983 12.7166L167.989 12.6866V12.656H167.689ZM167.689 7.088H167.989V6.92945L167.858 6.84013L167.689 7.088ZM166.489 6.56L166.414 6.85041L166.416 6.85104L166.489 6.56ZM161.737 7.52L161.949 7.73214L161.951 7.72984L161.737 7.52ZM160.801 12.872L160.506 12.9293L160.508 12.9388L160.801 12.872ZM161.401 14.336L161.15 14.5002L161.154 14.5068L161.401 14.336ZM162.529 15.32L162.391 15.5865L162.529 15.32ZM165.673 0.499999H169.561V-0.100001H165.673V0.499999ZM169.261 0.199999V12.896H169.861V0.199999H169.261ZM169.261 12.896C169.261 13.0499 169.269 13.2417 169.286 13.4694L169.884 13.4266C169.868 13.2063 169.861 13.0301 169.861 12.896H169.261ZM169.286 13.471C169.302 13.6779 169.318 13.9008 169.334 14.14L169.932 14.1C169.916 13.8592 169.9 13.6341 169.884 13.425L169.286 13.471ZM169.336 14.1596C169.368 14.3996 169.4 14.6396 169.432 14.8796L170.026 14.8004C169.994 14.5604 169.962 14.3204 169.93 14.0804L169.336 14.1596ZM169.432 14.8824C169.464 15.1093 169.497 15.3131 169.53 15.4937L170.12 15.3863C170.089 15.2149 170.057 15.0187 170.026 14.7976L169.432 14.8824ZM169.825 15.74H171.433V15.14H169.825V15.74ZM171.133 15.44V17H171.733V15.44H171.133ZM171.433 16.7H168.241V17.3H171.433V16.7ZM168.538 16.9614L168.298 15.1134L167.703 15.1906L167.943 17.0386L168.538 16.9614ZM168.001 14.852H167.905V15.452H168.001V14.852ZM167.645 15.0017C167.323 15.5583 166.835 16.0356 166.168 16.4297L166.473 16.9463C167.215 16.5084 167.783 15.9617 168.165 15.3023L167.645 15.0017ZM166.17 16.4286C165.534 16.7983 164.788 16.988 163.921 16.988V17.588C164.878 17.588 165.732 17.3777 166.472 16.9474L166.17 16.4286ZM163.921 16.988C162.167 16.988 160.929 16.5006 160.141 15.5808L159.685 15.9712C160.625 17.0674 162.059 17.588 163.921 17.588V16.988ZM160.144 15.5847C159.361 14.6388 158.941 13.1381 158.941 11.024H158.341C158.341 13.1979 158.769 14.8652 159.682 15.9673L160.144 15.5847ZM158.941 11.024C158.941 10.044 159.081 9.19293 159.354 8.46534L158.792 8.25466C158.489 9.06307 158.341 9.98798 158.341 11.024H158.941ZM159.354 8.46344C159.629 7.71599 160.014 7.10799 160.506 6.63137L160.088 6.20063C159.524 6.74801 159.093 7.43601 158.791 8.25655L159.354 8.46344ZM160.506 6.63127C161.018 6.13449 161.629 5.75646 162.343 5.49811L162.139 4.93389C161.349 5.21953 160.664 5.64151 160.088 6.20073L160.506 6.63127ZM162.343 5.49811C163.057 5.23968 163.862 5.108 164.761 5.108V4.508C163.804 4.508 162.928 4.64832 162.139 4.93389L162.343 5.49811ZM164.761 5.108C165.092 5.108 165.382 5.1159 165.63 5.13142L165.668 4.53258C165.404 4.5161 165.101 4.508 164.761 4.508V5.108ZM165.631 5.13148C165.897 5.14709 166.136 5.17037 166.35 5.20098L166.435 4.60701C166.202 4.57363 165.945 4.54891 165.666 4.53252L165.631 5.13148ZM166.35 5.20098C166.559 5.23073 166.749 5.27492 166.922 5.3326L167.112 4.76339C166.901 4.69308 166.675 4.64127 166.435 4.60701L166.35 5.20098ZM166.949 5.34032C167.154 5.38745 167.374 5.4426 167.612 5.50587L167.766 4.92613C167.523 4.86139 167.296 4.80455 167.084 4.75568L166.949 5.34032ZM167.989 5.216V1.808H167.389V5.216H167.989ZM167.689 1.508H165.673V2.108H167.689V1.508ZM165.973 1.808V0.199999H165.373V1.808H165.973ZM164.233 15.98C165.259 15.98 166.106 15.7184 166.736 15.1606L166.338 14.7114C165.848 15.1456 165.158 15.38 164.233 15.38V15.98ZM166.739 15.1574C167.36 14.5899 167.766 13.7648 167.983 12.7166L167.395 12.5954C167.195 13.5632 166.834 14.2581 166.334 14.7146L166.739 15.1574ZM167.989 12.656V7.088H167.389V12.656H167.989ZM167.858 6.84013C167.474 6.57856 167.041 6.38883 166.562 6.26896L166.416 6.85104C166.833 6.95517 167.2 7.11744 167.52 7.33587L167.858 6.84013ZM166.564 6.2696C166.097 6.14855 165.493 6.092 164.761 6.092V6.692C165.469 6.692 166.016 6.74745 166.414 6.8504L166.564 6.2696ZM164.761 6.092C163.419 6.092 162.327 6.48839 161.522 7.31016L161.951 7.72984C162.619 7.0476 163.543 6.692 164.761 6.692V6.092ZM161.525 7.30787C160.709 8.12405 160.333 9.38626 160.333 11.024H160.933C160.933 9.46174 161.293 8.38795 161.949 7.73213L161.525 7.30787ZM160.333 11.024C160.333 11.697 160.39 12.3323 160.506 12.9293L161.095 12.8147C160.987 12.2597 160.933 11.663 160.933 11.024H160.333ZM160.508 12.9388C160.643 13.5282 160.856 14.0502 161.15 14.5002L161.652 14.1718C161.402 13.7898 161.215 13.3358 161.093 12.8052L160.508 12.9388ZM161.154 14.5068C161.471 14.9644 161.885 15.3247 162.391 15.5865L162.667 15.0535C162.245 14.8353 161.907 14.5396 161.648 14.1652L161.154 14.5068ZM162.391 15.5865C162.908 15.8539 163.526 15.98 164.233 15.98V15.38C163.596 15.38 163.078 15.2661 162.667 15.0535L162.391 15.5865ZM184.383 15.488L184.583 15.7122L184.761 15.554L184.647 15.3447L184.383 15.488ZM183.352 16.208L183.205 15.9462L183.2 15.9489L183.352 16.208ZM182.079 16.784L182.177 17.0676L182.079 16.784ZM180.615 17.144L180.569 16.8474L180.558 16.8495L180.615 17.144ZM176.559 16.856L176.445 17.1333L176.45 17.1354L176.559 16.856ZM174.712 15.584L174.487 15.7829L174.49 15.7861L174.712 15.584ZM173.583 13.592L173.299 13.6869L173.583 13.592ZM173.607 8.312L173.326 8.20854L173.324 8.21367L173.607 8.312ZM174.831 6.344L174.619 6.13187L174.831 6.344ZM176.751 5.144L176.854 5.42616L176.859 5.42416L176.751 5.144ZM181.264 4.976L181.341 4.68625L181.264 4.976ZM182.992 5.984L182.779 6.19624L182.786 6.20286L182.992 5.984ZM184.167 8L183.881 8.09009L183.882 8.09163L184.167 8ZM184.456 11.312V11.612H184.738L184.755 11.3296L184.456 11.312ZM175.167 11.312V11.012H174.867V11.312H175.167ZM176.32 14.552L176.114 14.7709L176.119 14.7752L176.32 14.552ZM180.712 15.464L180.779 15.7564L180.787 15.7544L180.712 15.464ZM181.936 15.08L181.83 14.7991L181.936 15.08ZM182.943 14.6L182.793 14.3403L182.787 14.344L182.943 14.6ZM183.639 14.12L183.903 13.9767L183.721 13.6427L183.439 13.897L183.639 14.12ZM177.807 6.464L177.739 6.17184L177.737 6.17237L177.807 6.464ZM176.559 7.04L176.736 7.28263L176.738 7.28125L176.559 7.04ZM175.671 8.072L175.409 7.92629L175.407 7.92977L175.671 8.072ZM175.24 9.632L174.941 9.60139L174.907 9.932H175.24V9.632ZM182.704 9.632V9.932H183.027L183.003 9.60934L182.704 9.632ZM181.671 7.184L181.459 7.39621L181.465 7.40179L181.671 7.184ZM184.184 15.2638C183.915 15.503 183.589 15.7309 183.205 15.9462L183.498 16.4698C183.914 16.2371 184.276 15.985 184.583 15.7122L184.184 15.2638ZM183.2 15.9489C182.835 16.162 182.429 16.3461 181.982 16.5004L182.177 17.0676C182.658 16.9019 183.1 16.702 183.503 16.4671L183.2 15.9489ZM181.982 16.5004C181.535 16.6543 181.065 16.7702 180.569 16.8476L180.662 17.4404C181.19 17.3578 181.696 17.2337 182.177 17.0676L181.982 16.5004ZM180.558 16.8495C180.082 16.9418 179.597 16.988 179.104 16.988V17.588C179.634 17.588 180.157 17.5382 180.673 17.4385L180.558 16.8495ZM179.104 16.988C178.173 16.988 177.363 16.8484 176.669 16.5766L176.45 17.1354C177.228 17.4396 178.114 17.588 179.104 17.588V16.988ZM176.674 16.5787C175.975 16.2902 175.397 15.8906 174.933 15.3819L174.49 15.7861C175.018 16.3654 175.672 16.8138 176.445 17.1333L176.674 16.5787ZM174.936 15.3851C174.469 14.8578 174.112 14.2299 173.868 13.4971L173.299 13.6869C173.567 14.4901 173.962 15.1902 174.487 15.7829L174.936 15.3851ZM173.868 13.4971C173.624 12.7648 173.499 11.9336 173.499 11H172.9C172.9 11.9864 173.031 12.8832 173.299 13.6869L173.868 13.4971ZM173.499 11C173.499 10.0185 173.632 9.15675 173.891 8.41033L173.324 8.21367C173.039 9.03525 172.9 9.96548 172.9 11H173.499ZM173.889 8.41544C174.164 7.66741 174.55 7.0499 175.044 6.55613L174.619 6.13187C174.057 6.6941 173.627 7.38859 173.326 8.20855L173.889 8.41544ZM175.044 6.55613C175.538 6.06142 176.14 5.68423 176.854 5.42611L176.649 4.86189C175.859 5.14777 175.181 5.57057 174.619 6.13187L175.044 6.55613ZM176.859 5.42416C177.572 5.15111 178.375 5.012 179.271 5.012V4.412C178.312 4.412 177.435 4.56089 176.644 4.86384L176.859 5.42416ZM179.271 5.012C179.917 5.012 180.555 5.09648 181.186 5.26575L181.341 4.68625C180.66 4.50352 179.97 4.412 179.271 4.412V5.012ZM181.186 5.26575C181.789 5.42766 182.319 5.73607 182.779 6.19613L183.204 5.77187C182.672 5.23993 182.05 4.87634 181.341 4.68625L181.186 5.26575ZM182.786 6.20286C183.251 6.6388 183.62 7.26131 183.881 8.09009L184.454 7.90991C184.171 7.01069 183.756 6.2892 183.197 5.76514L182.786 6.20286ZM183.882 8.09163C184.138 8.89082 184.235 9.95381 184.156 11.2944L184.755 11.3296C184.836 9.95019 184.741 8.80517 184.453 7.90837L183.882 8.09163ZM184.456 11.012H175.167V11.612H184.456V11.012ZM174.867 11.312C174.867 12.8034 175.266 13.9757 176.114 14.7709L176.525 14.3331C175.837 13.6883 175.467 12.7006 175.467 11.312H174.867ZM176.119 14.7752C176.97 15.5394 178.087 15.908 179.439 15.908V15.308C178.2 15.308 177.237 14.9726 176.52 14.3288L176.119 14.7752ZM179.439 15.908C179.894 15.908 180.341 15.8575 180.779 15.7563L180.644 15.1717C180.25 15.2625 179.849 15.308 179.439 15.308V15.908ZM180.787 15.7544C181.228 15.64 181.646 15.5089 182.041 15.3609L181.83 14.7991C181.457 14.9391 181.059 15.064 180.636 15.1736L180.787 15.7544ZM182.041 15.3609C182.439 15.2116 182.793 15.0437 183.1 14.856L182.787 14.344C182.518 14.5083 182.2 14.6604 181.83 14.7991L182.041 15.3609ZM183.094 14.8596C183.406 14.6789 183.658 14.5068 183.84 14.343L183.439 13.897C183.301 14.0212 183.089 14.1691 182.793 14.3404L183.094 14.8596ZM183.376 14.2633L184.12 15.6313L184.647 15.3447L183.903 13.9767L183.376 14.2633ZM179.32 5.996C178.77 5.996 178.243 6.05428 177.739 6.17185L177.876 6.75615C178.332 6.64972 178.813 6.596 179.32 6.596V5.996ZM177.737 6.17237C177.236 6.29337 176.783 6.50189 176.381 6.79875L176.738 7.28125C177.072 7.03411 177.451 6.85863 177.878 6.75562L177.737 6.17237ZM176.383 6.79738C175.991 7.08233 175.668 7.46132 175.409 7.92631L175.934 8.21769C176.155 7.81868 176.424 7.50967 176.736 7.28262L176.383 6.79738ZM175.407 7.92977C175.16 8.38969 175.008 8.95042 174.941 9.60139L175.538 9.66261C175.599 9.06558 175.735 8.58631 175.936 8.21423L175.407 7.92977ZM175.24 9.932H182.704V9.332H175.24V9.932ZM183.003 9.60934C182.919 8.4994 182.553 7.60597 181.878 6.96621L181.465 7.40179C182.006 7.91402 182.328 8.65259 182.404 9.65466L183.003 9.60934ZM181.884 6.97187C181.226 6.31428 180.361 5.996 179.32 5.996V6.596C180.23 6.596 180.933 6.86972 181.459 7.39613L181.884 6.97187ZM195.99 12.584L195.815 12.8275L195.821 12.8321L195.99 12.584ZM194.502 11.912L194.417 12.1996L194.424 12.2016L194.502 11.912ZM192.558 11.432L192.497 11.7256L192.498 11.7259L192.558 11.432ZM190.638 10.856L190.525 11.134L190.638 10.856ZM189.15 9.896L188.934 10.104L188.938 10.1081L189.15 9.896ZM188.934 6.608L188.68 6.4481L188.676 6.45506L188.934 6.608ZM189.99 5.552L190.15 5.80596L190.157 5.80161L189.99 5.552ZM191.502 4.928L191.567 5.22096L191.575 5.21904L191.502 4.928ZM196.182 5.144L196.08 5.42635L196.087 5.4286L196.182 5.144ZM198.126 6.008L198.394 6.14386L198.517 5.90056L198.287 5.75455L198.126 6.008ZM197.358 7.52L197.214 7.78337L197.486 7.93131L197.626 7.65586L197.358 7.52ZM195.63 6.704L195.508 6.97798L195.516 6.98155L195.63 6.704ZM192.27 6.416L192.326 6.71088L192.337 6.70854L192.27 6.416ZM191.334 6.728L191.2 6.4596L191.194 6.46286L191.334 6.728ZM190.662 7.304L190.42 7.12658L190.418 7.12963L190.662 7.304ZM191.022 9.104L191.169 8.84225L191.022 9.104ZM192.51 9.68L192.432 9.9697L192.439 9.9715L192.51 9.68ZM194.43 10.112L194.369 10.4057L194.376 10.4072L194.43 10.112ZM197.862 11.72L198.082 11.5162L197.862 11.72ZM197.142 16.208L196.952 15.9758L196.95 15.9775L197.142 16.208ZM189.006 16.232L188.858 16.4933L188.867 16.498L189.006 16.232ZM188.094 15.608L187.839 15.4508L187.705 15.6678L187.898 15.8347L188.094 15.608ZM189.054 14.048L189.266 13.8359L188.998 13.5673L188.799 13.8908L189.054 14.048ZM189.822 14.648L189.659 14.8997L189.668 14.9052L189.822 14.648ZM190.878 15.176L190.994 14.8991L190.878 15.176ZM192.102 15.56L192.037 15.8529L192.039 15.8533L192.102 15.56ZM194.646 15.608L194.698 15.9037L194.707 15.9017L194.646 15.608ZM195.654 15.272L195.788 15.5406L195.8 15.5342L195.654 15.272ZM196.326 14.672L196.079 14.502L196.077 14.5056L196.326 14.672ZM196.89 13.76C196.89 13.1556 196.646 12.6675 196.159 12.3359L195.821 12.8321C196.134 13.0445 196.29 13.3404 196.29 13.76H196.89ZM196.165 12.3405C195.73 12.027 195.199 11.7896 194.58 11.6224L194.424 12.2016C194.989 12.3544 195.45 12.565 195.815 12.8275L196.165 12.3405ZM194.588 11.6244C193.986 11.4456 193.329 11.2836 192.618 11.1381L192.498 11.7259C193.195 11.8684 193.834 12.0264 194.417 12.1996L194.588 11.6244ZM192.62 11.1384C191.947 10.9977 191.325 10.8106 190.751 10.578L190.525 11.134C191.136 11.3814 191.793 11.5783 192.497 11.7256L192.62 11.1384ZM190.751 10.578C190.191 10.3511 189.73 10.052 189.362 9.68387L188.938 10.1081C189.37 10.54 189.901 10.8809 190.525 11.134L190.751 10.578ZM189.366 9.68807C189.034 9.34217 188.85 8.84873 188.85 8.168H188.25C188.25 8.95927 188.466 9.61783 188.934 10.1039L189.366 9.68807ZM188.85 8.168C188.85 7.60247 188.969 7.13777 189.192 6.76094L188.676 6.45506C188.387 6.94223 188.25 7.51753 188.25 8.168H188.85ZM189.188 6.76784C189.436 6.37382 189.756 6.05396 190.15 5.80587L189.83 5.29813C189.36 5.59404 188.976 5.97818 188.68 6.44816L189.188 6.76784ZM190.157 5.80161C190.554 5.53677 191.022 5.34191 191.567 5.22086L191.437 4.63514C190.83 4.77009 190.29 4.99123 189.824 5.30238L190.157 5.80161ZM191.575 5.21904C192.126 5.08129 192.701 5.012 193.302 5.012V4.412C192.655 4.412 192.03 4.48671 191.429 4.63696L191.575 5.21904ZM193.302 5.012C194.398 5.012 195.322 5.15306 196.081 5.42627L196.284 4.86173C195.443 4.55894 194.446 4.412 193.302 4.412V5.012ZM196.087 5.4286C196.891 5.69642 197.514 5.97528 197.966 6.26145L198.287 5.75455C197.778 5.43272 197.106 5.13558 196.277 4.8594L196.087 5.4286ZM197.859 5.87214L197.091 7.38414L197.626 7.65586L198.394 6.14386L197.859 5.87214ZM197.502 7.25663C196.963 6.96277 196.377 6.68613 195.744 6.42645L195.516 6.98155C196.131 7.23387 196.697 7.50123 197.214 7.78337L197.502 7.25663ZM195.753 6.43015C195.094 6.13554 194.281 5.996 193.326 5.996V6.596C194.227 6.596 194.95 6.72846 195.508 6.97785L195.753 6.43015ZM193.326 5.996C192.951 5.996 192.577 6.03863 192.204 6.12346L192.337 6.70854C192.667 6.63337 192.997 6.596 193.326 6.596V5.996ZM192.214 6.1213C191.853 6.19014 191.514 6.30259 191.2 6.45967L191.468 6.99633C191.73 6.86541 192.016 6.76986 192.326 6.7107L192.214 6.1213ZM191.194 6.46286C190.883 6.62732 190.624 6.84879 190.42 7.12659L190.904 7.48141C191.052 7.27921 191.241 7.11668 191.474 6.99314L191.194 6.46286ZM190.418 7.12963C190.214 7.41484 190.122 7.7595 190.122 8.144H190.722C190.722 7.8565 190.79 7.64116 190.906 7.47837L190.418 7.12963ZM190.122 8.144C190.122 8.68145 190.393 9.09529 190.876 9.36575L191.169 8.84225C190.852 8.6647 190.722 8.43855 190.722 8.144H190.122ZM190.876 9.36575C191.303 9.60508 191.823 9.80519 192.432 9.96961L192.588 9.39039C192.013 9.23481 191.541 9.05092 191.169 8.84225L190.876 9.36575ZM192.439 9.9715C193.035 10.1164 193.678 10.2611 194.369 10.4056L194.492 9.81836C193.806 9.67493 193.169 9.53163 192.581 9.3885L192.439 9.9715ZM194.376 10.4072C195.06 10.5315 195.686 10.7174 196.255 10.9634L196.493 10.4126C195.878 10.1466 195.208 9.94849 194.484 9.81684L194.376 10.4072ZM196.255 10.9634C196.812 11.2044 197.273 11.5253 197.642 11.9238L198.082 11.5162C197.651 11.0507 197.12 10.6836 196.493 10.4126L196.255 10.9634ZM197.642 11.9238C197.979 12.2874 198.162 12.7918 198.162 13.472H198.762C198.762 12.6802 198.546 12.0166 198.082 11.5162L197.642 11.9238ZM198.162 13.472C198.162 14.483 197.765 15.3108 196.952 15.9758L197.332 16.4402C198.279 15.6652 198.762 14.669 198.762 13.472H198.162ZM196.95 15.9775C196.163 16.6337 194.941 16.988 193.23 16.988V17.588C195.008 17.588 196.394 17.2223 197.334 16.4385L196.95 15.9775ZM193.23 16.988C192.72 16.988 192.219 16.9417 191.725 16.8491L191.615 17.4389C192.145 17.5383 192.684 17.588 193.23 17.588V16.988ZM191.725 16.8491C191.227 16.7558 190.763 16.6317 190.331 16.4775L190.129 17.0425C190.593 17.2083 191.089 17.3402 191.615 17.4389L191.725 16.8491ZM190.331 16.4775C189.894 16.3215 189.499 16.1508 189.145 15.966L188.867 16.498C189.249 16.6972 189.67 16.8785 190.129 17.0425L190.331 16.4775ZM189.154 15.9708C188.798 15.7696 188.511 15.5727 188.291 15.3813L187.898 15.8347C188.157 16.0593 188.478 16.2783 188.859 16.4932L189.154 15.9708ZM188.35 15.7652L189.31 14.2052L188.799 13.8908L187.839 15.4508L188.35 15.7652ZM188.842 14.2601C189.053 14.4715 189.328 14.6843 189.659 14.8995L189.986 14.3965C189.677 14.1957 189.439 14.0085 189.266 13.8359L188.842 14.2601ZM189.668 14.9052C190.002 15.1055 190.367 15.2879 190.763 15.4529L190.994 14.8991C190.621 14.7441 190.283 14.5745 189.976 14.3908L189.668 14.9052ZM190.763 15.4529C191.164 15.6201 191.589 15.7533 192.037 15.8529L192.167 15.2671C191.751 15.1747 191.36 15.0519 190.994 14.8991L190.763 15.4529ZM192.039 15.8533C192.507 15.9537 192.977 16.004 193.446 16.004V15.404C193.02 15.404 192.593 15.3583 192.165 15.2667L192.039 15.8533ZM193.446 16.004C193.893 16.004 194.31 15.9709 194.698 15.9036L194.595 15.3124C194.246 15.3731 193.863 15.404 193.446 15.404V16.004ZM194.707 15.9017C195.111 15.8175 195.473 15.6981 195.788 15.5403L195.52 15.0037C195.259 15.1339 194.949 15.2385 194.585 15.3143L194.707 15.9017ZM195.8 15.5342C196.124 15.3544 196.386 15.1235 196.576 14.8384L196.077 14.5056C195.947 14.7005 195.761 14.8696 195.508 15.0098L195.8 15.5342ZM196.573 14.842C196.788 14.5295 196.89 14.1643 196.89 13.76H196.29C196.29 14.0597 196.216 14.3025 196.079 14.502L196.573 14.842ZM206.421 14.528L206.627 14.7458L206.627 14.7455L206.421 14.528ZM209.061 14.72L208.824 14.9042L208.827 14.9085L209.061 14.72ZM209.253 18.128L208.979 18.0053L208.977 18.0087L209.253 18.128ZM208.461 19.328L208.249 19.1159L208.243 19.1212L208.238 19.1267L208.461 19.328ZM207.453 20.12L207.314 19.854L207.307 19.8577L207.3 19.8617L207.453 20.12ZM206.469 20.576L206.216 20.7379L206.34 20.9312L206.559 20.8621L206.469 20.576ZM205.869 19.64L205.76 19.3604L205.418 19.4933L205.616 19.8019L205.869 19.64ZM207.357 18.68L207.145 18.4679L207.357 18.68ZM207.981 17.168H208.281V16.7969L207.918 16.8747L207.981 17.168ZM206.349 16.856L206.13 17.0616L206.137 17.0682L206.143 17.0745L206.349 16.856ZM206.613 5.072L206.819 5.29019L206.825 5.28413L206.613 5.072ZM208.965 5.072L208.753 5.28422L208.759 5.2901L208.965 5.072ZM208.965 7.4L208.747 7.19368L208.965 7.4ZM206.613 7.4L206.395 7.60632L206.613 7.4ZM206.265 15.68C206.265 15.2692 206.392 14.9687 206.627 14.7458L206.214 14.3102C205.842 14.6633 205.665 15.1308 205.665 15.68H206.265ZM206.627 14.7455C206.885 14.5012 207.215 14.372 207.645 14.372V13.772C207.082 13.772 206.597 13.9468 206.214 14.3105L206.627 14.7455ZM207.645 14.372C208.172 14.372 208.552 14.5541 208.824 14.9042L209.298 14.5358C208.898 14.0219 208.334 13.772 207.645 13.772V14.372ZM208.827 14.9085C209.105 15.2522 209.265 15.7674 209.265 16.496H209.865C209.865 15.6886 209.689 15.0198 209.294 14.5315L208.827 14.9085ZM209.265 16.496C209.265 17.0871 209.166 17.5876 208.979 18.0053L209.527 18.2507C209.755 17.7404 209.865 17.1529 209.865 16.496H209.265ZM208.977 18.0087C208.782 18.4594 208.538 18.8264 208.249 19.1159L208.673 19.5401C209.023 19.1896 209.307 18.7566 209.528 18.2473L208.977 18.0087ZM208.238 19.1267C207.956 19.4388 207.648 19.6799 207.314 19.854L207.592 20.386C207.994 20.1761 208.358 19.8892 208.683 19.5293L208.238 19.1267ZM207.3 19.8617C206.963 20.0612 206.656 20.2024 206.378 20.2899L206.559 20.8621C206.89 20.7576 207.239 20.5948 207.605 20.3783L207.3 19.8617ZM206.721 20.4141L206.121 19.4781L205.616 19.8019L206.216 20.7379L206.721 20.4141ZM205.977 19.9196C206.59 19.6813 207.122 19.339 207.569 18.8921L207.145 18.4679C206.76 18.853 206.299 19.1507 205.76 19.3604L205.977 19.9196ZM207.569 18.8921C208.042 18.4195 208.281 17.839 208.281 17.168H207.681C207.681 17.681 207.504 18.1085 207.145 18.4679L207.569 18.8921ZM207.918 16.8747C207.701 16.9211 207.549 16.94 207.453 16.94V17.54C207.612 17.54 207.812 17.5109 208.044 17.4613L207.918 16.8747ZM207.453 16.94C207.046 16.94 206.758 16.8292 206.554 16.6375L206.143 17.0745C206.483 17.3948 206.932 17.54 207.453 17.54V16.94ZM206.567 16.6504C206.38 16.4519 206.265 16.1443 206.265 15.68H205.665C205.665 16.2397 205.805 16.7161 206.13 17.0616L206.567 16.6504ZM206.481 6.248C206.481 5.7931 206.607 5.49006 206.819 5.2901L206.407 4.8539C206.042 5.19794 205.881 5.6789 205.881 6.248H206.481ZM206.825 5.28413C207.047 5.06235 207.349 4.94 207.765 4.94V4.34C207.22 4.34 206.755 4.50565 206.401 4.85987L206.825 5.28413ZM207.765 4.94C208.219 4.94 208.534 5.066 208.753 5.28413L209.177 4.85987C208.819 4.502 208.335 4.34 207.765 4.34V4.94ZM208.759 5.2901C208.97 5.49006 209.097 5.7931 209.097 6.248H209.697C209.697 5.6789 209.535 5.19794 209.171 4.8539L208.759 5.2901ZM209.097 6.248C209.097 6.64426 208.976 6.95162 208.747 7.19368L209.183 7.60632C209.529 7.24038 209.697 6.77974 209.697 6.248H209.097ZM208.747 7.19368C208.528 7.42495 208.214 7.556 207.765 7.556V8.156C208.339 8.156 208.826 7.98305 209.183 7.60632L208.747 7.19368ZM207.765 7.556C207.354 7.556 207.053 7.42893 206.831 7.19368L206.395 7.60632C206.748 7.97907 207.216 8.156 207.765 8.156V7.556ZM206.831 7.19368C206.601 6.95162 206.481 6.64426 206.481 6.248H205.881C205.881 6.77974 206.048 7.24038 206.395 7.60632L206.831 7.19368ZM222.947 21.512L222.74 21.2948L222.735 21.2999L222.947 21.512ZM216.779 22.52H216.479V22.82H216.779V22.52ZM216.779 20.84V20.54H216.479V20.84H216.779ZM221.483 20.144L221.707 20.3443L221.483 20.144ZM222.467 13.976L222.196 13.8487L222.467 13.976ZM223.331 12.656L223.553 12.8583L223.557 12.8536L223.331 12.656ZM224.363 11.768L224.516 12.0264L224.524 12.0211L224.363 11.768ZM225.227 11.384L225.27 11.681L225.527 11.6442V11.384H225.227ZM225.227 11.24H225.527V10.9798L225.27 10.943L225.227 11.24ZM224.363 10.904L224.211 11.1624L224.22 11.1674L224.363 10.904ZM223.331 10.088L223.114 10.2952L223.119 10.3001L223.331 10.088ZM222.467 8.792L222.196 8.91933L222.467 8.792ZM221.507 2.576L221.273 2.76345L221.277 2.76805L221.507 2.576ZM216.779 1.856H216.479V2.156H216.779V1.856ZM216.779 0.175999V-0.124001H216.479V0.175999H216.779ZM221.747 0.487999L221.621 0.760346L221.633 0.765204L221.747 0.487999ZM222.923 1.304L222.701 1.50586L222.706 1.51114L222.923 1.304ZM223.691 2.552L223.41 2.65532L223.413 2.66342L223.691 2.552ZM224.315 8.432L224.042 8.55552L224.045 8.56267L224.315 8.432ZM225.179 9.656L224.972 9.87324L224.978 9.87827L224.983 9.88305L225.179 9.656ZM226.283 10.328L226.178 10.6089L226.185 10.6115L226.192 10.6137L226.283 10.328ZM227.339 10.52H227.639V10.22H227.339V10.52ZM227.339 12.2V12.5H227.639V12.2H227.339ZM226.283 12.44L226.172 12.1614L226.168 12.1631L226.283 12.44ZM225.179 13.184L224.972 12.9669L224.967 12.9719L225.179 13.184ZM224.315 14.456L224.044 14.3287L224.042 14.3325L224.315 14.456ZM223.679 18.584C223.679 19.8287 223.35 20.7137 222.74 21.2949L223.154 21.7291C223.921 20.9983 224.279 19.9313 224.279 18.584H223.679ZM222.735 21.2999C222.129 21.9056 221.315 22.22 220.259 22.22V22.82C221.444 22.82 222.421 22.4624 223.16 21.7241L222.735 21.2999ZM220.259 22.22H216.779V22.82H220.259V22.22ZM217.079 22.52V20.84H216.479V22.52H217.079ZM216.779 21.14H219.395V20.54H216.779V21.14ZM219.395 21.14C220.409 21.14 221.208 20.9002 221.707 20.3443L221.26 19.9437C220.926 20.3158 220.334 20.54 219.395 20.54V21.14ZM221.707 20.3443C222.193 19.8014 222.407 18.9939 222.407 17.984H221.807C221.807 18.9261 221.605 19.5586 221.26 19.9437L221.707 20.3443ZM222.407 17.984V15.68H221.807V17.984H222.407ZM222.407 15.68C222.407 15.0954 222.52 14.5715 222.739 14.1033L222.196 13.8487C221.935 14.4045 221.807 15.0166 221.807 15.68H222.407ZM222.739 14.1033C222.968 13.6151 223.24 13.2012 223.553 12.8583L223.11 12.4537C222.751 12.8468 222.447 13.3129 222.196 13.8487L222.739 14.1033ZM223.557 12.8536C223.877 12.4879 224.197 12.2146 224.516 12.0263L224.211 11.5097C223.825 11.7374 223.458 12.0561 223.106 12.4584L223.557 12.8536ZM224.524 12.0211C224.866 11.8039 225.11 11.7038 225.27 11.681L225.185 11.087C224.897 11.1282 224.565 11.2841 224.202 11.5149L224.524 12.0211ZM225.527 11.384V11.24H224.927V11.384H225.527ZM225.27 10.943C225.099 10.9186 224.848 10.8266 224.507 10.6406L224.22 11.1674C224.583 11.3654 224.908 11.4974 225.185 11.537L225.27 10.943ZM224.516 10.6457C224.189 10.4524 223.864 10.1969 223.544 9.87587L223.119 10.3001C223.47 10.6511 223.834 10.9396 224.211 11.1623L224.516 10.6457ZM223.548 9.88086C223.238 9.55579 222.967 9.15195 222.739 8.66467L222.196 8.91933C222.447 9.45605 222.753 9.91621 223.114 10.2951L223.548 9.88086ZM222.739 8.66467C222.52 8.19842 222.407 7.65901 222.407 7.04H221.807C221.807 7.73299 221.934 8.36158 222.196 8.91933L222.739 8.66467ZM222.407 7.04V4.712H221.807V7.04H222.407ZM222.407 4.712C222.407 3.73224 222.201 2.93943 221.738 2.38394L221.277 2.76805C221.614 3.17257 221.807 3.80375 221.807 4.712H222.407ZM221.742 2.38859C221.273 1.80217 220.461 1.556 219.419 1.556V2.156C220.394 2.156 220.974 2.38983 221.273 2.76341L221.742 2.38859ZM219.419 1.556H216.779V2.156H219.419V1.556ZM217.079 1.856V0.175999H216.479V1.856H217.079ZM216.779 0.475999H220.259V-0.124001H216.779V0.475999ZM220.259 0.475999C220.764 0.475999 221.216 0.572272 221.621 0.760102L221.874 0.215897C221.382 -0.0122733 220.843 -0.124001 220.259 -0.124001V0.475999ZM221.633 0.765204C222.058 0.941249 222.413 1.18835 222.701 1.5058L223.145 1.1022C222.794 0.715648 222.365 0.418748 221.862 0.210794L221.633 0.765204ZM222.706 1.51114C223.012 1.83183 223.247 2.21198 223.41 2.65528L223.973 2.44872C223.784 1.93202 223.506 1.48017 223.14 1.09686L222.706 1.51114ZM223.413 2.66342C223.589 3.10415 223.679 3.59381 223.679 4.136H224.279C224.279 3.52618 224.178 2.95985 223.97 2.44058L223.413 2.66342ZM223.679 4.136V6.584H224.279V4.136H223.679ZM223.679 6.584C223.679 7.3484 223.795 8.00955 224.042 8.55548L224.589 8.30852C224.387 7.86245 224.279 7.2916 224.279 6.584H223.679ZM224.045 8.56267C224.298 9.08514 224.606 9.52423 224.972 9.87324L225.386 9.43876C225.081 9.14777 224.813 8.77086 224.585 8.30133L224.045 8.56267ZM224.983 9.88305C225.359 10.2071 225.757 10.4509 226.178 10.6089L226.389 10.0471C226.042 9.9171 225.704 9.71286 225.375 9.42895L224.983 9.88305ZM226.192 10.6137C226.611 10.7479 226.995 10.82 227.339 10.82V10.22C227.076 10.22 226.756 10.1641 226.375 10.0423L226.192 10.6137ZM227.039 10.52V12.2H227.639V10.52H227.039ZM227.339 11.9C226.985 11.9 226.594 11.9927 226.172 12.1615L226.395 12.7185C226.773 12.5673 227.086 12.5 227.339 12.5V11.9ZM226.168 12.1631C225.745 12.3394 225.346 12.6098 224.972 12.967L225.387 13.401C225.716 13.0862 226.054 12.8606 226.399 12.7169L226.168 12.1631ZM224.967 12.9719C224.602 13.3366 224.296 13.791 224.044 14.3287L224.587 14.5833C224.815 14.097 225.084 13.7034 225.392 13.3961L224.967 12.9719ZM224.042 14.3325C223.796 14.8761 223.679 15.5123 223.679 16.232H224.279C224.279 15.5757 224.386 15.0279 224.589 14.5795L224.042 14.3325ZM223.679 16.232V18.584H224.279V16.232H223.679Z" fill="#18E9DC"/>
<defs>
<linearGradient id="paint0_linear_1_22" x1="114.5" y1="-4" x2="114.5" y2="23" gradientUnits="userSpaceOnUse">
<stop offset="0.244792" stop-color="#2725AA"/>
<stop offset="1" stop-color="#18E9DC"/>
</linearGradient>
</defs>
</svg>
