<svg width="125" height="116" viewBox="0 0 125 116" fill="none" xmlns="http://www.w3.org/2000/svg">
<path d="M22.88 88.672C22.88 85.6907 22.36 83.1253 21.32 80.976C20.3493 78.7573 19.1013 76.92 17.576 75.464C16.12 74.008 14.5253 72.9333 12.792 72.24C11.128 71.5467 9.63733 71.2 8.32 71.2V63.92C9.63733 63.92 11.128 63.6427 12.792 63.088C14.5253 62.464 16.12 61.4933 17.576 60.176C19.1013 58.7893 20.3493 57.0213 21.32 54.872C22.36 52.7227 22.88 50.0533 22.88 46.864V36.256C22.88 33.76 23.2613 31.472 24.024 29.392C24.856 27.312 25.9653 25.5093 27.352 23.984C28.808 22.4587 30.5067 21.28 32.448 20.448C34.4587 19.5467 36.6427 19.096 39 19.096H54.08V26.376H42.64C38.272 26.376 35.2213 27.416 33.488 29.496C31.824 31.576 30.992 34.6613 30.992 38.752V48.84C30.992 51.6827 30.472 54.2133 29.432 56.432C28.392 58.6507 27.144 60.5227 25.688 62.048C24.232 63.504 22.7413 64.6827 21.216 65.584C19.6907 66.416 18.4427 66.9013 17.472 67.04V67.664C18.3733 67.8027 19.5867 68.3573 21.112 69.328C22.6373 70.2293 24.128 71.512 25.584 73.176C27.04 74.7707 28.288 76.6773 29.328 78.896C30.4373 81.1147 30.992 83.576 30.992 86.28V96.264C30.992 100.493 31.8933 103.613 33.696 105.624C35.4987 107.635 38.5147 108.64 42.744 108.64H54.08V115.92H39C34.1467 115.92 30.2293 114.464 27.248 111.552C24.336 108.709 22.88 104.48 22.88 98.864V88.672Z" fill="url(#paint0_linear_2_2)"/>
<path d="M21.32 80.976L21.045 81.0963L21.05 81.1067L21.32 80.976ZM17.576 75.464L17.3638 75.6762L17.3689 75.681L17.576 75.464ZM12.792 72.24L12.6766 72.517L12.6806 72.5185L12.792 72.24ZM8.32 71.2H8.02V71.5H8.32V71.2ZM8.32 63.92V63.62H8.02V63.92H8.32ZM12.792 63.088L12.8869 63.3727L12.8936 63.3703L12.792 63.088ZM17.576 60.176L17.7773 60.3985L17.7778 60.398L17.576 60.176ZM21.32 54.872L21.0499 54.7413L21.0466 54.7485L21.32 54.872ZM24.024 29.392L23.7453 29.2805L23.7423 29.2887L24.024 29.392ZM27.352 23.984L27.1349 23.7768L27.13 23.7822L27.352 23.984ZM32.448 20.448L32.5662 20.7238L32.5707 20.7218L32.448 20.448ZM54.08 19.096H54.38V18.796H54.08V19.096ZM54.08 26.376V26.676H54.38V26.376H54.08ZM33.488 29.496L33.2575 29.3039L33.2537 29.3086L33.488 29.496ZM29.432 56.432L29.7036 56.5593L29.432 56.432ZM25.688 62.048L25.9002 62.2602L25.905 62.2551L25.688 62.048ZM21.216 65.584L21.3597 65.8475L21.3686 65.8423L21.216 65.584ZM17.472 67.04L17.4296 66.743L17.172 66.7798V67.04H17.472ZM17.472 67.664H17.172V67.9214L17.4264 67.9605L17.472 67.664ZM21.112 69.328L20.9508 69.5812L20.9594 69.5863L21.112 69.328ZM25.584 73.176L25.3582 73.3736L25.3625 73.3783L25.584 73.176ZM29.328 78.896L29.0563 79.0234L29.0597 79.0302L29.328 78.896ZM33.696 105.624L33.4726 105.824L33.696 105.624ZM54.08 108.64H54.38V108.34H54.08V108.64ZM54.08 115.92V116.22H54.38V115.92H54.08ZM27.248 111.552L27.4576 111.337L27.4576 111.337L27.248 111.552ZM23.18 88.672C23.18 85.6564 22.654 83.0442 21.59 80.8453L21.05 81.1067C22.066 83.2064 22.58 85.725 22.58 88.672H23.18ZM21.5948 80.8558C20.6106 78.606 19.3412 76.7342 17.7831 75.247L17.3689 75.681C18.8615 77.1058 20.0881 78.9086 21.0452 81.0962L21.5948 80.8558ZM17.7881 75.2519C16.3064 73.7701 14.6782 72.6714 12.9034 71.9615L12.6806 72.5185C14.3725 73.1953 15.9336 74.2459 17.3639 75.6761L17.7881 75.2519ZM12.9074 71.9631C11.2194 71.2598 9.68864 70.9 8.32 70.9V71.5C9.58603 71.5 11.0366 71.8336 12.6766 72.5169L12.9074 71.9631ZM8.62 71.2V63.92H8.02V71.2H8.62ZM8.32 64.22C9.67826 64.22 11.2018 63.9343 12.8869 63.3726L12.6971 62.8034C11.0542 63.351 9.59641 63.62 8.32 63.62V64.22ZM12.8936 63.3703C14.6661 62.7322 16.2942 61.7403 17.7773 60.3985L17.3747 59.9535C15.9458 61.2464 14.3845 62.1958 12.6904 62.8057L12.8936 63.3703ZM17.7778 60.398C19.3376 58.98 20.6083 57.1768 21.5934 54.9955L21.0466 54.7485C20.0904 56.8658 18.8651 58.5986 17.3742 59.954L17.7778 60.398ZM21.59 55.0027C22.6552 52.8013 23.18 50.0841 23.18 46.864H22.58C22.58 50.0226 22.0648 52.644 21.05 54.7413L21.59 55.0027ZM23.18 46.864V36.256H22.58V46.864H23.18ZM23.18 36.256C23.18 33.7908 23.5566 31.5383 24.3057 29.4953L23.7423 29.2887C22.9661 31.4057 22.58 33.7292 22.58 36.256H23.18ZM24.3025 29.5034C25.1224 27.4538 26.2134 25.6824 27.574 24.1858L27.13 23.7822C25.7172 25.3362 24.5896 27.1702 23.7455 29.2806L24.3025 29.5034ZM27.569 24.1911C28.997 22.6952 30.662 21.5398 32.5662 20.7237L32.3298 20.1723C30.3513 21.0202 28.619 22.2222 27.135 23.7769L27.569 24.1911ZM32.5707 20.7218C34.5401 19.8389 36.682 19.396 39 19.396V18.796C36.6034 18.796 34.3772 19.2544 32.3253 20.1742L32.5707 20.7218ZM39 19.396H54.08V18.796H39V19.396ZM53.78 19.096V26.376H54.38V19.096H53.78ZM54.08 26.076H42.64V26.676H54.08V26.076ZM42.64 26.076C38.2369 26.076 35.0751 27.1228 33.2575 29.3039L33.7185 29.6881C35.3675 27.7092 38.3071 26.676 42.64 26.676V26.076ZM33.2537 29.3086C31.5297 31.4637 30.692 34.6278 30.692 38.752H31.292C31.292 34.6948 32.1183 31.6883 33.7223 29.6834L33.2537 29.3086ZM30.692 38.752V48.84H31.292V38.752H30.692ZM30.692 48.84C30.692 51.6457 30.1789 54.1317 29.1604 56.3047L29.7036 56.5593C30.7651 54.2949 31.292 51.7197 31.292 48.84H30.692ZM29.1604 56.3047C28.132 58.4986 26.9013 60.3424 25.471 61.8409L25.905 62.2551C27.3867 60.7029 28.6521 58.8027 29.7036 56.5593L29.1604 56.3047ZM25.4759 61.8359C24.0349 63.2769 22.5638 64.4391 21.0634 65.3257L21.3686 65.8423C22.9188 64.9262 24.4291 63.7311 25.9001 62.2601L25.4759 61.8359ZM21.0723 65.3206C19.5581 66.1466 18.3474 66.6119 17.4296 66.743L17.5144 67.337C18.538 67.1908 19.8233 66.6854 21.3597 65.8474L21.0723 65.3206ZM17.172 67.04V67.664H17.772V67.04H17.172ZM17.4264 67.9605C18.2633 68.0893 19.4329 68.6151 20.9509 69.5811L21.2731 69.0749C19.7404 68.0996 18.4833 67.5161 17.5176 67.3675L17.4264 67.9605ZM20.9594 69.5863C22.4514 70.4679 23.9182 71.7279 25.3582 73.3736L25.8098 72.9784C24.3378 71.2961 22.8232 69.9907 21.2646 69.0697L20.9594 69.5863ZM25.3625 73.3783C26.7955 74.9479 28.0275 76.8284 29.0564 79.0233L29.5996 78.7687C28.5485 76.5263 27.2845 74.5935 25.8055 72.9737L25.3625 73.3783ZM29.0597 79.0302C30.1463 81.2035 30.692 83.6183 30.692 86.28H31.292C31.292 83.5337 30.7283 81.0258 29.5963 78.7618L29.0597 79.0302ZM30.692 86.28V96.264H31.292V86.28H30.692ZM30.692 96.264C30.692 100.527 31.5992 103.735 33.4726 105.824L33.9194 105.424C32.1874 103.492 31.292 100.459 31.292 96.264H30.692ZM33.4726 105.824C35.3577 107.927 38.4771 108.94 42.744 108.94V108.34C38.5522 108.34 35.6396 107.342 33.9194 105.424L33.4726 105.824ZM42.744 108.94H54.08V108.34H42.744V108.94ZM53.78 108.64V115.92H54.38V108.64H53.78ZM54.08 115.62H39V116.22H54.08V115.62ZM39 115.62C34.2111 115.62 30.3737 114.186 27.4576 111.337L27.0384 111.767C30.085 114.742 34.0822 116.22 39 116.22V115.62ZM27.4576 111.337C24.6226 108.57 23.18 104.431 23.18 98.864H22.58C22.58 104.529 24.0494 108.849 27.0384 111.767L27.4576 111.337ZM23.18 98.864V88.672H22.58V98.864H23.18Z" fill="#18E9DC"/>
<path d="M101.879 98.864C101.879 104.48 100.389 108.709 97.4074 111.552C94.4954 114.464 90.6127 115.92 85.7594 115.92H70.6794V108.64H82.0154C86.2447 108.64 89.2607 107.635 91.0634 105.624C92.866 103.613 93.7674 100.493 93.7674 96.264V86.28C93.7674 83.576 94.2874 81.1147 95.3274 78.896C96.3674 76.6773 97.6154 74.7707 99.0714 73.176C100.527 71.512 102.018 70.2293 103.543 69.328C105.069 68.3573 106.317 67.8027 107.287 67.664V67.04C106.317 66.9013 105.069 66.416 103.543 65.584C102.018 64.6827 100.527 63.504 99.0714 62.048C97.6154 60.5227 96.3674 58.6507 95.3274 56.432C94.2874 54.2133 93.7674 51.6827 93.7674 48.84V38.752C93.7674 34.6613 92.9007 31.576 91.1674 29.496C89.5034 27.416 86.4874 26.376 82.1194 26.376H70.6794V19.096H85.7594C88.1167 19.096 90.266 19.5467 92.2074 20.448C94.218 21.28 95.9167 22.4587 97.3034 23.984C98.7594 25.5093 99.8687 27.312 100.631 29.392C101.463 31.472 101.879 33.76 101.879 36.256V46.864C101.879 50.0533 102.365 52.7227 103.335 54.872C104.375 57.0213 105.623 58.7893 107.079 60.176C108.605 61.4933 110.199 62.464 111.863 63.088C113.597 63.6427 115.122 63.92 116.439 63.92V71.2C115.122 71.2 113.597 71.5467 111.863 72.24C110.199 72.9333 108.605 74.008 107.079 75.464C105.623 76.92 104.375 78.7573 103.335 80.976C102.365 83.1253 101.879 85.6907 101.879 88.672V98.864Z" fill="url(#paint1_linear_2_2)"/>
<path d="M97.4074 111.552L97.2003 111.335L97.1952 111.34L97.4074 111.552ZM70.6794 115.92H70.3794V116.22H70.6794V115.92ZM70.6794 108.64V108.34H70.3794V108.64H70.6794ZM91.0634 105.624L91.2868 105.824L91.0634 105.624ZM95.3274 78.896L95.0557 78.7687L95.3274 78.896ZM99.0714 73.176L99.293 73.3783L99.2971 73.3736L99.0714 73.176ZM103.543 69.328L103.696 69.5864L103.704 69.5811L103.543 69.328ZM107.287 67.664L107.33 67.961L107.587 67.9242V67.664H107.287ZM107.287 67.04H107.587V66.7798L107.33 66.743L107.287 67.04ZM103.543 65.584L103.391 65.8424L103.4 65.8474L103.543 65.584ZM99.0714 62.048L98.8543 62.2552L98.8592 62.2601L99.0714 62.048ZM95.3274 56.432L95.0557 56.5593L95.3274 56.432ZM91.1674 29.496L90.9331 29.6834L90.9369 29.6881L91.1674 29.496ZM70.6794 26.376H70.3794V26.676H70.6794V26.376ZM70.6794 19.096V18.796H70.3794V19.096H70.6794ZM92.2074 20.448L92.0809 20.7203L92.0927 20.7252L92.2074 20.448ZM97.3034 23.984L97.0813 24.1859L97.0864 24.1911L97.3034 23.984ZM100.631 29.392L100.35 29.4953L100.353 29.5034L100.631 29.392ZM103.335 54.872L103.062 54.9955L103.065 55.0027L103.335 54.872ZM107.079 60.176L106.872 60.3932L106.878 60.3983L106.883 60.403L107.079 60.176ZM111.863 63.088L111.758 63.3689L111.765 63.3715L111.772 63.3737L111.863 63.088ZM116.439 63.92H116.739V63.62H116.439V63.92ZM116.439 71.2V71.5H116.739V71.2H116.439ZM111.863 72.24L111.752 71.9614L111.748 71.9631L111.863 72.24ZM107.079 75.464L106.872 75.2469L106.867 75.2519L107.079 75.464ZM103.335 80.976L103.064 80.8487L103.062 80.8525L103.335 80.976ZM101.579 98.864C101.579 104.429 100.103 108.567 97.2004 111.335L97.6144 111.769C100.674 108.852 102.179 104.531 102.179 98.864H101.579ZM97.1952 111.34C94.3495 114.186 90.5484 115.62 85.7594 115.62V116.22C90.677 116.22 94.6413 114.742 97.6195 111.764L97.1952 111.34ZM85.7594 115.62H70.6794V116.22H85.7594V115.62ZM70.9794 115.92V108.64H70.3794V115.92H70.9794ZM70.6794 108.94H82.0154V108.34H70.6794V108.94ZM82.0154 108.94C86.2823 108.94 89.4017 107.927 91.2868 105.824L90.84 105.424C89.1198 107.342 86.2071 108.34 82.0154 108.34V108.94ZM91.2868 105.824C93.1602 103.735 94.0674 100.527 94.0674 96.264H93.4674C93.4674 100.459 92.5719 103.492 90.84 105.424L91.2868 105.824ZM94.0674 96.264V86.28H93.4674V96.264H94.0674ZM94.0674 86.28C94.0674 83.6154 94.5796 81.1982 95.599 79.0233L95.0557 78.7687C93.9952 81.0312 93.4674 83.5366 93.4674 86.28H94.0674ZM95.599 79.0233C96.6279 76.8284 97.8598 74.9479 99.2929 73.3783L98.8498 72.9737C97.3709 74.5935 96.1069 76.5263 95.0557 78.7687L95.599 79.0233ZM99.2971 73.3736C100.737 71.7279 102.204 70.4679 103.696 69.5863L103.391 69.0697C101.832 69.9907 100.318 71.2961 98.8456 72.9784L99.2971 73.3736ZM103.704 69.5811C105.219 68.6172 106.423 68.0905 107.33 67.961L107.245 67.367C106.21 67.5149 104.918 68.0975 103.382 69.0749L103.704 69.5811ZM107.587 67.664V67.04H106.987V67.664H107.587ZM107.33 66.743C106.412 66.6119 105.201 66.1466 103.687 65.3206L103.4 65.8474C104.936 66.6854 106.221 67.1908 107.245 67.337L107.33 66.743ZM103.696 65.3257C102.196 64.4391 100.724 63.2769 99.2835 61.8359L98.8592 62.2601C100.33 63.7311 101.841 64.9262 103.391 65.8423L103.696 65.3257ZM99.2884 61.8409C97.8581 60.3424 96.6274 58.4986 95.599 56.3047L95.0557 56.5593C96.1073 58.8027 97.3727 60.7029 98.8544 62.2551L99.2884 61.8409ZM95.599 56.3047C94.5805 54.1317 94.0674 51.6457 94.0674 48.84H93.4674C93.4674 51.7197 93.9943 54.2949 95.0557 56.5593L95.599 56.3047ZM94.0674 48.84V38.752H93.4674V48.84H94.0674ZM94.0674 38.752C94.0674 34.6256 93.1941 31.4594 91.3978 29.3039L90.9369 29.6881C92.6073 31.6926 93.4674 34.6971 93.4674 38.752H94.0674ZM91.4016 29.3086C89.6525 27.1222 86.521 26.076 82.1194 26.076V26.676C86.4538 26.676 89.3543 27.7098 90.9331 29.6834L91.4016 29.3086ZM82.1194 26.076H70.6794V26.676H82.1194V26.076ZM70.9794 26.376V19.096H70.3794V26.376H70.9794ZM70.6794 19.396H85.7594V18.796H70.6794V19.396ZM85.7594 19.396C88.0775 19.396 90.1832 19.8389 92.081 20.7201L92.3337 20.1759C90.3489 19.2544 88.1559 18.796 85.7594 18.796V19.396ZM92.0927 20.7252C94.0648 21.5412 95.7261 22.695 97.0814 24.1858L97.5254 23.7822C96.1073 22.2223 94.3713 21.0187 92.3221 20.1708L92.0927 20.7252ZM97.0864 24.1911C98.5125 25.6852 99.6005 27.452 100.35 29.4953L100.913 29.2887C100.137 27.172 99.0063 25.3335 97.5204 23.7769L97.0864 24.1911ZM100.353 29.5034C101.169 31.5441 101.579 33.7938 101.579 36.256H102.179C102.179 33.7262 101.758 31.3998 100.91 29.2806L100.353 29.5034ZM101.579 36.256V46.864H102.179V36.256H101.579ZM101.579 46.864C101.579 50.0817 102.069 52.7962 103.062 54.9955L103.609 54.7485C102.661 52.6491 102.179 50.0249 102.179 46.864H101.579ZM103.065 55.0027C104.118 57.1785 105.386 58.9776 106.872 60.3932L107.286 59.9588C105.861 58.6011 104.633 56.8642 103.605 54.7413L103.065 55.0027ZM106.883 60.403C108.432 61.7405 110.057 62.7309 111.758 63.3689L111.969 62.8071C110.342 62.1971 108.778 61.2462 107.275 59.949L106.883 60.403ZM111.772 63.3737C113.524 63.9345 115.082 64.22 116.439 64.22V63.62C115.162 63.62 113.669 63.3508 111.955 62.8023L111.772 63.3737ZM116.139 63.92V71.2H116.739V63.92H116.139ZM116.439 70.9C115.072 70.9 113.507 71.2594 111.752 71.9615L111.975 72.5185C113.686 71.8339 115.173 71.5 116.439 71.5V70.9ZM111.748 71.9631C110.045 72.6728 108.42 73.7698 106.872 75.247L107.287 75.681C108.79 74.2462 110.354 73.1939 111.979 72.5169L111.748 71.9631ZM106.867 75.2519C105.382 76.7366 104.116 78.6043 103.064 80.8487L103.607 81.1033C104.635 78.9103 105.864 77.1033 107.292 75.6761L106.867 75.2519ZM103.062 80.8525C102.07 83.0495 101.579 85.659 101.579 88.672H102.179C102.179 85.7224 102.66 83.2012 103.609 81.0995L103.062 80.8525ZM101.579 88.672V98.864H102.179V88.672H101.579Z" fill="#18E9DC"/>
<defs>
<linearGradient id="paint0_linear_2_2" x1="31.5" y1="0" x2="31.5" y2="116" gradientUnits="userSpaceOnUse">
<stop stop-color="#2725AA"/>
<stop offset="1" stop-color="#18E9DC"/>
</linearGradient>
<linearGradient id="paint1_linear_2_2" x1="62.5" y1="0" x2="62.5" y2="116" gradientUnits="userSpaceOnUse">
<stop stop-color="#18E9DC"/>
<stop offset="1" stop-color="#2725AA"/>
</linearGradient>
</defs>
</svg>
